<svg xmlns="http://www.w3.org/2000/svg" viewBox="0 0 228.1 300"><g fill="#323232"><path d="M60.548 229.74c0 .179.118.297.356.297v.297H58.47v-.297c.059 0 .118 0 .178-.059.059-.06.059-.119.059-.237v-6.235h-2.612c-.12 0-.179 0-.297.06-.12.059-.178.178-.12.296h-.296v-2.196h.297c0 .118.06.237.119.296.059.06.178.06.297.06H63.1c.119 0 .178 0 .297-.06.118-.059.178-.178.118-.296h.297v2.196h-.297a.454.454 0 00-.118-.296c-.06-.06-.178-.06-.297-.06h-2.613l.06 6.235zM89.998 230.631c0-.178-.06-.237-.179-.297-.118 0-.237-.059-.356 0h-7.481v-.297c.297 0 .475-.118.475-.296v-7.125c0-.179-.178-.297-.475-.297v-.297h2.731v.297c-.297 0-.415.119-.415.297v6.234h5.225c.118 0 .296-.06.356-.119a.327.327 0 00.178-.297h.297v2.138l-.356.06zM137.498 230.037c.178 0 .297-.118.297-.296v-7.125c0-.179-.12-.297-.297-.297v-.297h2.672v.297c-.06 0-.12.06-.12.178s.12.237.298.415l4.512 4.691v-4.987c0-.179-.119-.297-.416-.297v-.297h2.375v.297c-.178 0-.296.119-.296.297v7.125c0 .178.118.296.296.296v.297h-2.553v-.297c.12 0 .238-.059.238-.118s-.06-.178-.238-.357l-4.809-4.987v5.225c0 .178.119.297.356.297v.297h-2.315v-.357zM170.273 229.74c0 .179.118.297.356.297v.297h-2.434v-.297c.059 0 .118 0 .178-.059.059-.06.118-.119.059-.237v-6.235h-2.613c-.118 0-.178 0-.296.06-.12.059-.179.178-.12.296h-.296v-2.196h.297c0 .118.06.237.119.296.059.06.178.06.296.06h6.947c.12 0 .178 0 .297-.06.119-.059.178-.178.119-.296h.297v2.196h-.297a.454.454 0 00-.119-.296c-.06-.06-.178-.06-.297-.06h-2.612l.119 6.235zM36.798 230.334h-2.435l.119-.297c.178 0 .297-.059.356-.178a.656.656 0 000-.475l-.119-1.128H30.86l-1.069 1.188c-.118.119-.237.237-.297.415 0 .06 0 .12.06.12.06.058.119.058.119.058l-.12.297h-2.79l.119-.297.356-.178c.119-.059.238-.178.297-.237l5.819-6.413c.119-.118.237-.237.297-.356.06-.06.118-.178.178-.237.06-.12.06-.179 0-.238-.06-.06-.119-.06-.178-.06l.118-.296h2.672l-.118.297c-.12 0-.179.06-.297.119-.119.059-.178.118-.178.237-.06.119-.06.178-.06.297s0 .237.06.356l.653 6.116c0 .119.06.237.06.415.058.12.118.178.237.178v.297zm-2.079-3.206l-.296-2.91-2.494 2.91h2.79zM118.794 229.86c-.118-.06-.178-.179-.237-.238l-3.266-6.413-.178-.356c-.06-.06-.06-.178-.06-.237 0-.12.06-.179.12-.238.059-.06.118-.06.237-.06v-.296h-2.91v.297c.06 0 .179.06.238.06.06.058.119.118.119.237 0 .059 0 .178-.06.237-.059.06-.118.178-.177.356l-3.266 6.413a.464.464 0 01-.238.237c-.059.06-.178.12-.296.178v.297h2.79v-.297c-.06 0-.119 0-.178-.059-.06 0-.119-.06-.06-.119 0-.118.06-.297.12-.415l.593-1.188h3.8l.594 1.188c.06.119.119.237.119.415 0 .06-.06.12-.12.12-.058 0-.118.058-.177.058v.297h2.79v-.297c-.118-.059-.178-.118-.296-.178zm-6.175-2.732l1.247-2.79.06-.12.06.12 1.246 2.79h-2.612zM191.291 230.037a.255.255 0 00.238-.237c.06-.119.06-.238.06-.416l.652-6.115c0-.119.06-.238.06-.357v-.296c-.06-.12-.119-.179-.178-.238-.06-.06-.179-.06-.297-.119l-.119-.297h2.672l.119.297c-.06 0-.12.06-.179.06-.059.06-.059.118 0 .237.06.119.12.178.179.238l.296.297 5.879 6.412c.059.119.178.178.296.238l.357.178.118.297h-2.79l-.119-.297c.06 0 .119 0 .119-.06.06 0 .06-.059.06-.118-.06-.179-.179-.297-.298-.416l-1.068-1.188h-3.86l-.119 1.129c0 .178 0 .297.06.475.06.118.178.178.356.178l.119.297h-2.435l-.178-.179zm4.988-2.968l-2.494-2.91-.297 2.91h2.79zM113.985 9.46c-2.078 5.284-6.115 10.152-10.094 11.934 2.97 1.306 6.057 5.64 6.057 9.678s-3.028 7.303-6.77 7.303-6.768-3.266-6.768-7.303c-9.619.356-14.487-5.047-14.487-5.047l13.18 21.494c3.445-1.425 10.154-3.028 18.05-3.147h1.723c7.956.178 14.665 1.722 18.05 3.147l13.181-21.494s-4.869 5.344-14.487 5.047c0 4.037-3.029 7.303-6.77 7.303s-6.768-3.266-6.768-7.303 3.028-8.372 6.056-9.678c-4.097-1.722-8.134-6.65-10.153-11.935zM82.22 52.21c1.959-.594 4.275-1.366 6.353-2.197l-3.8-6.116c-3.622 2.078-15.32 4.453-22.503 5.581-9.322 1.425-14.844-4.987-18.466-18.228-.06 6.116 2.672 20.306 8.906 26.422 10.035.95 24.166-3.978 29.51-5.463zM91.007 192.156s-27.372-15.319-32.181-18.584c-4.275-2.969-4.394-5.106-4.394-7.719s-.653-30.637-.653-39.187c-1.781-.238-8.134-1.841-8.134-1.841v44.472c0 7.244 6.353 10.153 6.353 10.153s32.478 18.228 50.112 27.847c-8.906-8.431-11.103-15.14-11.103-15.14zM139.338 50.012c2.138.832 4.394 1.663 6.353 2.197 5.344 1.544 19.416 6.413 29.51 5.463 6.234-6.116 8.965-20.306 8.847-26.422-3.622 13.181-9.144 19.653-18.466 18.228-7.244-1.128-18.881-3.503-22.503-5.581l-3.74 6.115zM173.538 165.912c0 2.613-.119 4.75-4.394 7.72-4.75 3.265-32.18 18.584-32.18 18.584s-2.198 6.709-11.045 15.14c17.635-9.619 50.113-27.847 50.113-27.847s6.353-2.968 6.353-10.212c0-8.372.06-44.472.06-44.472s-6.472 1.662-8.254 1.84c0 8.61-.653 36.635-.653 39.247z"/></g><g fill="#910f1b"><path d="M167.838 259.428l-18.11 7.897v8.55l6.591-2.316v10.332h-10.806c-3.265 0-2.612-2.97-2.612-4.394v-27.49c0-1.485-.713-4.394 2.612-4.394h11.044v8.253l11.281-3.741v-6.828c0-4.038.594-6.413-6.412-6.413s-26.482.06-26.482.06c-1.484 0-3.978.356-3.978 2.672v48.33c0 2.317 2.435 2.673 3.978 2.673 0 0 19.713.06 26.72.06 7.005 0 6.174-2.316 6.174-6.413v-26.838zM95.104 276.113v-2.257l-12.172 4.216v5.7h-9.381v-11.103l10.45-3.74V258.3l-10.45 3.86v-14.726h8.906v7.422l12.647-4.097v-8.015c-.06-2.613-.89-4.097-6.413-4.097H54.907c3.147 0 5.7 4.215 5.7 5.937l.06 45.066c0 2.256 2.434 2.672 3.978 2.672l24.343.06c4.928 0 5.938-1.188 6.116-3.326.06-.831 0-12.944 0-12.944zM216.348 285.91v-41.266c0-1.781 2.493-5.938 5.64-5.938h-22.325c3.147 0 5.64 4.216 5.64 5.938v25.115l-15.258-30.875v-.178H173.42c3.087 0 5.58 4.157 5.64 5.938v41.325c0 1.9-2.731 6.412-6.056 6.412h23.216c-3.385 0-6.057-4.512-6.057-6.412v-22.8l14.19 29.212h18.17c-3.504 0-6.175-4.572-6.175-6.472zM120.16 285.91v-41.266c0-1.781 2.553-5.938 5.76-5.938h-23.87c3.207 0 5.76 4.216 5.76 5.938v41.325c-.06 1.9-2.79 6.353-6.175 6.353h24.76c-3.504.06-6.235-4.513-6.235-6.413zM49.563 286.206l-.178-.237-.119-.238-7.54-15.378 7.303-2.79v-22.86c0-4.928-3.978-5.878-10.213-5.878l-32.715-.119c3.206 0 5.7 4.216 5.7 5.938v41.325c-.06 1.96-2.79 6.353-6.175 6.353h25.412c-3.443 0-6.175-4.513-6.175-6.413v-8.193c1.485-.535 3.385-1.307 5.463-2.138l5.64 13.063c.475.83.891 1.306.238 2.137-.594.653-1.366 1.188-2.138 1.603h24.047c-3.978-.06-7.243-4.097-8.55-6.175zm-12.468-28.025c0 2.138-1.129 4.097-3.029 5.047l-9.143 3.86v-19.475h7.897c4.274 0 4.274 2.85 4.274 2.85v7.718zM24.863 43.66c1.307-7.126 4.632-13.657 9.56-18.941 4.987-5.878 5.343-10.094 4.215-12.29S34.957 8.33 31.87 7.5c3.562 3.266 3.503 5.7 1.543 8.372-3.028 4.215-16.565 14.487-8.55 27.787zM203.048 43.66c-1.307-7.126-4.632-13.657-9.5-18.941-4.988-5.878-5.344-10.094-4.216-12.29s3.681-4.038 6.769-4.929c-3.563 3.266-3.503 5.7-1.544 8.372 2.91 4.215 16.447 14.487 8.49 27.787z"/><path d="M157.388 107.962s20.247 10.747 43.403-7.184c-2.434 9.084-15.497 19.89-31.884 19.89-10.51 0-16.922-4.334-24.403-5.64-5.581-.95-12.172-.534-12.766 4.513-.831 7.303 7.719 9.737 15.26 8.134-2.138 3.681-17.16 9.44-23.394 3.028-.06 9.5 3.74 35.447 25.887 33.784 2.494 3.741 6.65 7.185 10.57 8.372-3.92 2.553-12.767 7.244-12.767 7.244s-21.256-4.69-26.006-30.637c0 22.978 6.353 38.118 10.747 40.315-.831 2.969-3.8 6.828-6.472 9.56s-11.222 9.262-11.697 13.715c-.475-4.512-9.143-11.044-11.697-13.715s-5.58-6.591-6.471-9.56c4.393-2.197 10.746-17.337 10.746-40.315-4.75 25.947-26.006 30.637-26.006 30.637s-8.847-4.69-12.765-7.244c3.918-1.187 8.075-4.63 10.568-8.372 22.088 1.663 25.947-24.284 25.888-33.784-6.235 6.353-21.256.653-23.394-3.028 7.54 1.603 16.15-.831 15.26-8.134-.594-5.107-7.185-5.522-12.766-4.513-7.481 1.306-13.894 5.64-24.403 5.64-16.388 0-29.45-10.746-31.885-19.89 23.216 17.931 43.403 7.184 43.403 7.184s-39.9 8.194-52.546-28.618c-5.82-17.04 5.225-32.419 1.959-34.438 4.572.178 4.69 8.61 4.81 14.132 0 5.818 2.374 11.4 6.53 15.496 0 0-13.002-26.065 7.244-48.093 0 0-.059 21.968 8.313 32.953C66.188 85.162 71.65 72.337 87.623 86.35c0 0-4.097-4.216-3.503-8.61 3.503 7.66 13.24 9.62 17.693 9.62h2.613c2.494-.179 4.156-1.841 4.097-6.829-.06-2.315.178-4.631.653-6.887 0 0-1.366 4.928-4.335 6.293-2.315 1.07-4.571-.178-4.809-2.018 1.722.653 4.156.89 5.403-2.494 1.603-4.275 5.106-13.656 6.413-14.903.593-.653 1.603.237 1.603.237s-.772-7.659 5.225-6.768c-1.603 1.009-1.722 3.384-1.722 7.243.772-2.137 2.85-3.147 4.275-2.909-2.019 1.01-2.494 4.869-2.494 8.787s-.356 12.291 5.166 18.644a5.366 5.366 0 01-3.74-2.731s-.179 4.275 4.037 4.334h1.722c4.453 0 14.19-1.959 17.693-9.618.594 4.393-3.503 8.609-3.503 8.609 16.031-14.013 21.435-1.188 40.969-26.956 8.372-11.044 8.312-32.953 8.312-32.953 20.247 22.028 7.244 48.093 7.244 48.093 4.156-4.097 6.531-9.678 6.531-15.497.06-5.521.238-13.953 4.81-14.13-3.266 2.018 7.778 17.396 1.96 34.437-12.47 36.812-52.548 28.618-52.548 28.618zm-42.275-43.046l-1.9-2.138v5.285l1.9-3.147z"/></g></svg>