<svg xmlns="http://www.w3.org/2000/svg" viewBox="0 0 225 161.4"><g fill="#f2df00"><path d="M74.848 112.202c.3-.4.5-.8.4-1.3v-2c0-1.5-.8-2.3-2.3-2.3h-8.2l1 2.3v9.5h7.3c1.5 0 2.3-.8 2.3-2.3v-2.6c0-.6-.2-1-.5-1.3zm-6.7-3.4h4.3c.4 0 .4 0 .4.5v1.9c-.1 0-.2.1-.3 0h-4.3l-.1-2.4zm0 7.2v-2.7h4.7V115.502c0 .1 0 .3-.1.4 0 0-.1.1-.4.1h-4.2zM90.748 106.502h-5.2c-1.5 0-2.2.8-2.2 2.4v7c0 1 .2 2.4 2.2 2.4h5.2c1.5 0 2.2-.8 2.2-2.4v-7c0-1.6-.7-2.4-2.2-2.4zm-.2 2.8v6.3c0 .3 0 .4-.5.4h-4c-.4 0-.4 0-.4-.4v-6.3c0-.5 0-.5.4-.5h4c.5 0 .5 0 .5.5zM108.748 111.302h-5v-2.1-.3h6.8v-2.3h-7c-1.6 0-2.3.8-2.3 2.4v2.5c0 1.3.7 2 2 2h4.9v2.5H101.248v2.3h7.1c1.6 0 2.3-.8 2.3-2.4v-2.6c0-1.3-.7-2-1.9-2zM118.348 106.502v2.3h3v9.5h2.4v-9.5h3v-2.3zM141.448 106.502h-5.2c-1.5 0-2.2.8-2.2 2.4v7c0 1 .2 2.4 2.2 2.4h5.2c2 0 2.2-1.3 2.2-2.4v-7c.1-1.6-.6-2.4-2.2-2.4zm-.6 2.3c.4 0 .5 0 .5.5v6.3c0 .3 0 .4-.5.4h-4c-.4 0-.4 0-.4-.4v-6.3c0-.5 0-.5.4-.5h4zM153.748 106.502h-2.1v11.8h2.3v-7.8l6.1 7.8h1.7v-11.8h-2.3v7.3z"/></g><g fill="#fff"><path d="M205.748 136.002l4.9 7.9v3.8l-1.6 1.6h-9.4l-1.7-1.7v-17.7l1.7-1.8h14.1l4.9-7.9h-23.4l-6 6.3v25.9l4.7 4.9h20.9l4.7-4.8v-16.4l-13.8-.1zM17.348 147.302v-27.1h-11.7l3 4.9v27.4l4.7 4.8h20.9l4.7-4.8v-25.9l-6-6.4h-2.7v29.2h-10.9zM106.748 157.302h7.5v-32.2h-10.8l3.3 3.6zM147.148 157.302h7.5v-32.2h-10.8l3.3 3.6zM101.248 140.902v-11.9l-3.6-3.8h-27l5.4 5.8v12l-3.8 1.4 3.8 5.1v7.9h7.6v-8.6l-1.4-.3 1.4-.6 6.4-2.5 6.4 12h8.6l-8.4-14.6 4.6-1.9zm-6.9-4.6l-9.5 3.5-1.3-1.1v-5.7l-1.6-.9h10.9l1.5 1.4v2.8zM116.048 157.302h23.9l3.5-3.6v-14.1l-18.3-5.4v-2.3l-1.7-1h15.5l3.2-5.8h-21l-3.1 2.4v11.6l18.6 5.5v4.7l-.9 1.1h-15.7zM166.548 157.302v-17.5l11.8 17.5h10.6l-3.6-3.8v-28.4h-7.6v17.1l-11.5-17.1-9.5.1 2.3 3.4v28.7zM67.348 125.102h-26.8l5.4 5.8v12l-4.8 1.9 4.8 4.6v4.1l-3.6 3.8h10.9v-8.6l-1.4-.3 4.1-1.6 14.5-5.7v-12.7l-3.1-3.3zm-3.2 11.2l-9.6 3.5-1.2-1.1v-5.7l-1.5-.9h10.8l1.5 1.4v2.8zM134.648 4.002l4.3 3.6v62l-23.8 15-25.2-14.8v-54.2l-2.6-1.9h30.9l2.4 2.2v7.1l-12 6.9v-10.4h-11.4v46.5l17.8 10.6 17-10.7v-29.5l-5.1-4.6 5.1-3.2v-17.7l-7.5-6.8h-51.1l4.7 3.6v68.4l36.9 22.3 35.4-22.2v-72.2h-15.8zm-13.9 55.4l-5.6 4-6.4-3.5v-15.3l-2-.5 11.4-6.9 2.6 2.4v19.8z"/></g></svg>