<svg xmlns="http://www.w3.org/2000/svg" viewBox="0 0 275 300"><path d="M111.677 29.84s.905 3.143 1.433 6.159c-1.583 2.69-3.67 7.566-6.007 12.543-4.952 3.268-7.315 4.952-11.864 7.314-1.182 7.44 1.18 19.204 12.794 24.684-1.307-1.835-1.71-3.393-.654-4.575 1.056-1.181 13.197-18.6 14.755-22.37 1.558-3.771 2.212-4.953 1.181-6.662-1.834-2.916-11.638-17.092-11.638-17.092zM163.181 29.84s-.905 3.143-1.433 6.159c1.584 2.664 3.67 7.54 6.033 12.518 4.952 3.267 7.315 4.952 11.864 7.314 1.182 7.44-1.181 19.204-12.794 24.684 1.307-1.835 1.71-3.393.654-4.575-1.056-1.181-13.222-18.575-14.78-22.346-1.559-3.77-2.212-4.952-1.182-6.66 1.81-2.917 11.638-17.093 11.638-17.093z" fill="#161823"/><path fill="#fff" d="M110.823 51.91l3.594 4.323 3.318-2.589zM163.106 51.91l-3.595 4.323-3.318-2.589z"/><g fill="#161823"><path d="M201.137 53.117s16.036-29.208-1.785-43.787c-7.466-7.164-23.477 9.15-23.477 9.15l25.262 34.637zM75.507 9.33a21.993 21.993 0 00-5.48 6.585l4.7 6.787-6.836-1.131c-3.494 14.529 5.856 31.546 5.856 31.546L99.01 18.504S82.972 2.166 75.507 9.33zM157.4 77.8a134.163 134.163 0 00-18.324 3.871v-5.857l2.488-2.362a19.182 19.182 0 015.203-.654c3.343-.05 7.717-4.248 6.083-10.356-6.334 1.408-15.433 3.192-15.433 3.217s-9.074-1.784-15.434-3.217c-1.634 6.108 2.74 10.306 6.083 10.356 1.76 0 3.52.201 5.203.654l2.489 2.362v6.837c-10.13 3.042-19.38 6.913-22.522 10.18-.603.604 24.759-8.118 41.826-8.32 3.57 2.288 6.887 7.717 6.887 7.717A31.426 31.426 0 00157.4 77.8z"/></g><g fill="#fff"><path d="M51.703 218.034c0-2.715 2.137-4.575 5.354-4.575.302 0 .603 0 .88.05.276.026.553.076.83.126 0 .704-.051 1.182-.076 2.413h-.151a.847.847 0 00-.503-.553c-.352-.125-.704-.2-1.08-.176-1.66 0-2.967 1.056-2.967 2.69-.1 1.433 1.006 2.664 2.439 2.765h.326c.403 0 .805-.05 1.182-.201.251-.1.477-.302.603-.528h.176c0 .653 0 1.784.05 2.337-.276.076-.578.151-.854.176-.428.05-.83.076-1.257.076-2.84 0-4.977-1.785-4.952-4.6zM86.541 218.612c0 3.243 0 3.67.604 3.695v.201h-3.243v-.201c.553-.05.553-.478.553-2.916v-.477h-3.393v.528c0 2.438 0 2.865.553 2.915v.201h-3.218v-.2c.528-.051.528-.478.528-3.696v-1.382c0-3.016 0-3.444-.528-3.469v-.226h3.142v.2c-.502.026-.502.479-.502 2.942v.427h3.368v-.402c0-2.463 0-2.89-.478-2.916v-.226h3.067v.201c-.453.025-.453.478-.453 3.469v1.332zM106.902 217.23c0-3.017 0-3.444-.478-3.47v-.225h5.48c0 .603 0 1.231-.05 2.262h-.202c-.075-.427-.528-.553-1.307-.553h-1.357v1.86h1.131c.804 0 1.005-.025 1.106-.251h.201v2.262h-.176c-.075-.226-.301-.302-1.08-.302h-1.157v1.559c0 .25 0 .326.226.351h1.584c.503 0 .905-.125 1.005-.477h.201c0 1.08-.05 1.609-.05 2.237h-5.58v-.201c.503-.05.503-.478.503-3.695v-1.357zM139.704 222.609h-.301c-1.81-1.534-2.967-2.514-3.695-3.193-.528-.452-1.031-.955-1.71-1.659h-.05v1.006c0 3.092 0 3.519.503 3.57v.2h-2.941v-.2c.503-.051.503-.478.503-3.696v-5.102h.326c1.785 1.558 2.941 2.563 3.695 3.267.553.528 1.03.98 1.684 1.684h.026v-1.357c0-2.89 0-3.318-.528-3.368v-.226h2.915v.2c-.477.026-.477.478-.477 3.47l.05 5.404zM159.687 218.06c0-2.74 2.162-4.6 5.43-4.6.402 0 .729 0 1.181.05.302.025.578.075.88.125-.025.704-.05 1.182-.076 2.413h-.2a.945.945 0 00-.554-.603 2.876 2.876 0 00-1.307-.226c-1.734 0-2.966 1.08-2.966 2.69a2.571 2.571 0 002.388 2.764h.201c.151 0 .352 0 .528-.025v-.855c0-.88-.05-1.483-.478-1.533v-.2h2.966v.2c-.402.05-.402.427-.402 1.71v2.262a7.987 7.987 0 01-2.564.326c-2.865.05-5.002-1.659-5.027-4.499zM194.727 217.858a4.439 4.439 0 01-1.86 3.796 5.756 5.756 0 01-3.444.88c-.603 0-1.08 0-1.533-.026-.453-.025-.955 0-1.282 0v-.176c.528-.075.528-.452.528-3.67v-1.382c0-3.016 0-3.343-.503-3.419v-.226c.277 0 .905-.05 1.408-.05.603 0 1.13-.025 1.784-.025a6.011 6.011 0 013.017.653 3.981 3.981 0 011.885 3.645zm-2.262.1a2.37 2.37 0 00-2.137-2.588 1.22 1.22 0 00-.427 0c-.227 0-.428.025-.654.05v5.027c0 .1 0 .176.1.201.177.025.327.05.503.05.579 0 1.157-.176 1.61-.502.678-.579 1.055-1.383 1.005-2.237zM215.012 217.18c0-3.017 0-3.444-.478-3.47v-.2h3.142v.2c-.503.026-.503.478-.503 3.47v1.13c-.05.553.076 1.106.352 1.584a1.56 1.56 0 001.408.654c.503 0 1.005-.227 1.307-.654a2.597 2.597 0 00.377-1.609v-1.13c0-3.017 0-3.444-.528-3.47v-.2h3.092v.2c-.453.026-.453.478-.453 3.47v1.08c0 1.458-.276 2.237-.754 2.89-.704.93-1.81 1.484-2.966 1.433-1.608 0-2.84-.653-3.443-1.784-.403-.78-.553-1.634-.503-2.514l-.05-1.08z"/></g><g fill="#161823"><path d="M23.023 229.873a3.281 3.281 0 00-.955.905 5.835 5.835 0 00-.553 1.03c-.176.377-.277.78-.277 1.182v9.3h8.823v-9.652a3.407 3.407 0 00-.352-1.08 5.437 5.437 0 00-.553-.906 3.07 3.07 0 00-.905-.804h16.364c-.377.226-.704.553-.98.905a5.835 5.835 0 00-.554 1.03c-.176.377-.301.78-.352 1.182v45.27c.05.402.151.804.352 1.181.151.377.327.729.553 1.056.252.377.578.678.98.905H28.252c.302-.151.578-.377.804-.654.202-.251.377-.528.528-.804.176-.277.327-27.876.428-28.178h-8.647c.1.302.226 27.901.427 28.178.151.276.302.553.478.804.2.277.452.478.754.654H6.735c.352-.176.628-.453.854-.78.201-.301.377-.603.528-.93.176-.352.327-.703.402-1.08v-46a5.596 5.596 0 00-.402-1.08c-.15-.277-.327-.603-.528-.905a2.618 2.618 0 00-.854-.804l16.288.075zM61.883 229.873c-.377.226-.704.553-.98.905a5.835 5.835 0 00-.553 1.03c-.176.377-.277.78-.277 1.182v38.936h7.114v-39.288a3.407 3.407 0 00-.352-1.08 5.437 5.437 0 00-.553-.906 2.787 2.787 0 00-.905-.804h16.338a3.367 3.367 0 00-.955.93 5.835 5.835 0 00-.553 1.03c-.176.377-.301.78-.352 1.182v45.27c.05.402.151.804.352 1.181.151.352.327.704.553 1.03.252.353.578.654.955.88H74v.05H56.077v-.05H45.595c.352-.175.628-.452.855-.779.2-.276.351-.578.527-.88.176-.351.327-.703.428-1.08v-46a5.688 5.688 0 00-.428-1.08 8.43 8.43 0 00-.527-.905 2.618 2.618 0 00-.855-.804l16.288.05zM104.237 281.427c.352-.201.654-.453.905-.78.226-.276.402-.603.553-.93.176-.326.302-.703.352-1.08V261.67l-8.823-13.397v30.012c0 .402.1.83.277 1.181.15.377.352.73.553 1.056.251.377.578.679.98.905H82.771c.352-.176.628-.453.855-.78.2-.3.377-.603.528-.93.176-.351.326-.703.427-1.08v-46a5.688 5.688 0 00-.427-1.08 8.43 8.43 0 00-.528-.905 2.618 2.618 0 00-.855-.804l16.49.05 6.836 10.406v-7.691a3.407 3.407 0 00-.352-1.081 5.437 5.437 0 00-.553-.905 2.787 2.787 0 00-.904-.804h16.363a3.825 3.825 0 00-.98.93 5.835 5.835 0 00-.553 1.03c-.176.377-.302.78-.352 1.182v45.27c.05.402.15.804.352 1.181.15.377.327.729.553 1.056.251.377.578.678.98.905l-16.414.05zM154.484 281.427c.352-.176.628-.453.855-.78.2-.3.377-.603.528-.93.176-.351.326-.703.427-1.08v-46a5.688 5.688 0 00-.427-1.08 8.43 8.43 0 00-.528-.905 2.618 2.618 0 00-.855-.804h33.984v10.884a5.997 5.997 0 00-1.232-.704 8.798 8.798 0 00-1.382-.427c-.528-.126-1.056-.227-1.584-.252h-15.308v3.62h13.02c.529 0 1.082-.076 1.584-.201.478-.1.93-.252 1.383-.428.452-.176.88-.402 1.232-.729v12.166a3.78 3.78 0 00-1.106-.653c-.428-.151-.805-.277-1.182-.377a7.154 7.154 0 00-1.458-.302h-13.473v19.506h17.043a8.32 8.32 0 001.583-.252c.478-.1.93-.251 1.383-.402.452-.15.854-.402 1.181-.729v10.884l-35.668-.025zM233.135 281.477v-10.833c.377.326.83.553 1.307.703.502.176 1.03.302 1.558.403.578.125 1.182.226 1.785.25h13.297v-2.94l-7.591-10.13h-.076l-12.82-16.69v-9.627a5.46 5.46 0 00-.477-1.03 9.43 9.43 0 00-.603-.906c-.251-.352-.578-.603-.98-.804h34.26v10.834a6.04 6.04 0 00-1.332-.68 10.982 10.982 0 00-1.559-.426 10.524 10.524 0 00-1.784-.252h-13.272v2.966l7.616 9.98h.076l12.819 16.84v8.748l2.866 3.594h-35.09zM121.656 229.873v10.884a4.328 4.328 0 011.182-.704c.452-.176.93-.327 1.407-.427a7.81 7.81 0 011.534-.252l11.034-.226-5.58 2.187v37.302l6.184 13.875 6.535-14.252v-38.91h5.404c.528.024 1.056.125 1.584.25.478.101.93.252 1.382.428.428.176.83.402 1.182.704v-10.884l-31.848.025zM206.792 281.427a2.982 2.982 0 01-.955-.905 7.197 7.197 0 01-.603-1.056 3.415 3.415 0 01-.377-1.181v-16.188h3.217l5.806 16.188c.101.377.126.78.076 1.181-.05.352-.15.704-.251 1.056a1.79 1.79 0 01-.704.905h17.369a4.372 4.372 0 01-1.257-.78c-.327-.276-.603-.603-.88-.93a10.944 10.944 0 01-.804-1.08l-7.315-20.712 5.781-18.55v-6.46c.05-.428.176-.83.378-1.182.175-.352.377-.679.603-.98a2.881 2.881 0 011.03-.88H189.5c.377.176.678.452.904.804.202.302.377.604.553.905.176.352.327.704.428 1.081v48.789l15.408-.025zm-.427-22.421a7.778 7.778 0 01-1.458 2.01V239.35h7.54l-6.082 19.657zM88.603 144.36c8.797 5.405 14.754 8.798 18.098 10.633-3.067-5.178-5.354-10.507-6.435-15.635 27.02 22.698 37.15 25.036 37.15 25.036s10.105-2.363 37.127-25.036c-1.081 5.128-3.343 10.457-6.41 15.635 3.343-1.835 9.325-5.228 18.098-10.633 14.604-8.973 34.36-25.739 34.486-39.01-.502-8.874-2.186-19.783-4.273-27.324-2.815 25.614-23.326 43.435-33.757 48.412 0 0 2.79-7.063 2.89-12.24-28.83 26.04-48.16 29.61-48.16 29.61s-19.33-3.57-48.16-29.61c.1 5.177 2.89 12.24 2.89 12.24-10.432-4.977-30.943-22.798-33.758-48.412-2.086 7.541-3.745 18.4-4.248 27.323.1 13.272 19.858 30.038 34.462 39.011z"/></g><path d="M164.06 164.042c-11.863 13.498-26.643 20.31-26.643 20.31-18.802-9.602-59.095-36.045-67.691-43.51-8.396-7.29-14.127-16.088-15.434-24.282-.427-2.765-.478-6.737-.226-11.21.125 13.246 19.882 30.037 34.486 38.985 8.798 5.404 14.755 8.798 18.098 10.633-3.066-5.178-5.354-10.507-6.435-15.635 27.022 22.698 37.151 25.036 37.151 25.036s10.105-2.363 37.126-25.036c-1.08 5.128-3.343 10.457-6.41 15.635 3.344-1.835 9.326-5.229 18.099-10.633 14.604-8.948 34.335-25.74 34.486-38.986.252 4.5.302 8.471-.226 11.21-1.885 10.13-12.543 33.507-49.417 62.866-18.199 14.378-42.983 25.563-45.522 26.82 14.252-11.437 28.379-24.03 38.559-42.203z" fill="#b4926a"/></svg>