<svg xmlns="http://www.w3.org/2000/svg" viewBox="0 0 225 104.9"><path d="M221.72 67.518c-7.393 13.04-13.01 10.35-14.441 9.124-.236-.205-.44-.425-.44-.425-2.203-2.737-.236-6.749 2.155-9.517 13.654-15.826 7.692-38.211 7.692-38.211-2.06 11.547-3.854 8.385-3.854 8.385-.283-.598.267-4.452.267-4.452-5.065 11.468-14.126 14.881-17.964 16.596-12.585 5.632-11.515 15.668-11.515 15.668 4.153-9.155 13.513-11.436 13.513-11.436-4.704 3.57-3.87 12.144-4.295 20.702-1.038 21.347-19.097 29.464-19.097 29.464 50.528-7.897 47.98-35.898 47.98-35.898z" fill="#0072ce"/><path d="M193.121 46.485c28.992-11.184 17.666-44.959 17.666-44.959-3.445 18.972-13.938 24.226-22.37 27.97-35.111 15.605-19.27 46.155-19.27 46.155-2.234-20.467 22.134-28.458 23.974-29.166z" fill="#0072ce"/><g fill="#fff"><path d="M22.282 80.102h19.255c.614-3.618 1.211-6.953 1.825-10.57H24.107l-1.825 10.57zM160.857 82.289c-.44 2.501-.834 4.971-1.243 6.922h-10.083a5173.054 5173.054 0 007.204-40.885h-12.333l-2.297 1.95c-2.8 16.203-5.6 32.013-8.4 47.854l1.416 1.652h35.426l1.982-1.652 3.493-19.852c-5.05 1.526-9.376 2.674-15.165 4.011zM131.739 80.04c.613-3.619 1.211-6.954 1.825-10.572h-19.05l-1.873 10.603 19.098-.032z"/><path d="M110.03 85.86l4.31-24.43h23.188c.519-3.335 1.337-7.85 1.95-11.154l-1.274-1.636h-34.781l-1.526 1.338c-2.832 16.045-5.679 32.107-8.51 48.152l1.4 1.683h34.167l2.03-1.573c.503-2.847.99-5.647 1.51-8.432h-23.125v-.031.031-.047l.55-3.225c.048-.267.08-.472.111-.676zM97.587 48.625H84.656c-.11.55-.205 1.132-.299 1.667-1.856 10.54-3.713 21.064-5.569 31.588-.283 1.589-.676 3.178-1.919 4.578-2.391 2.705-5.349 3.54-8.7 3.492-5.552-.079-8.18-2.91-7.267-8.023 1.872-10.65 3.744-21.41 5.632-32.044.11-.488.189-.99.251-1.494l-12.553.015-2.234 1.888c-1.84 10.493-3.65 21.017-5.553 31.51-1.29 7.141 1.353 12.285 7.3 15.667 6.355 3.619 13.827 3.744 21.724 1.84 7.677-1.855 16.502-8.022 17.949-18.278s3.571-20.592 5.349-30.912l-1.18-1.494zM48.05 48.656H13.347l-1.62 1.432a28159.71 28159.71 0 00-8.495 48.105l1.385 1.668h10.697l2.108-1.7 6.48-36.684H47.28c.535-3.335 1.369-7.913 1.966-11.216l-1.195-1.605z"/></g><g fill="#0072ce"><path d="M71.442 39.453v-9.36h2.202v7.819h3.901v1.541h-6.103zM94.582 39.438v-9.36h2.202v7.818h3.902v1.542h-6.104zM120.538 37.503h2.124l.503 1.935h2.297l-2.894-9.455h-2.722l-2.879 9.47h2.281l.472-1.887.425-1.668.016-.078 1.022-4.17h.032l1.07 4.17-1.4.015zM49.78 37.534h2.108l.504 1.951h2.296l-2.894-9.454h-2.722l-2.878 9.454h2.296l.472-1.872.41-1.683.015-.079 1.038-4.153h.032l1.054 4.169h-1.4zM147.045 34.23l-1.699-.628c-.928-.347-1.133-.693-1.133-1.275s.252-1.022 1.259-1.022c.818 0 1.164.314 1.195 1.337l2.187-.33c-.031-1.762-1.479-2.47-3.414-2.454-2.076 0-3.397.928-3.397 2.753 0 1.557.896 2.249 2.847 2.831 1.447.44 1.95.74 1.95 1.605 0 .85-.644 1.148-1.337 1.148-1.132 0-1.415-.535-1.447-1.384l-2.186-.33v.377c0 1.73.975 2.721 3.46 2.721 2.391 0 3.776-.896 3.776-2.878.031-1.133-.41-1.857-2.061-2.47zM26.262 30.046h-3.618v7.22h2.234v-5.82h.912c1.684 0 1.888 1.133 1.888 3.257 0 2.548-.299 3.413-1.84 3.413H22.66v1.353h3.492c2.926 0 3.744-1.541 3.744-4.86-.031-2.706-.582-4.563-3.634-4.563z"/></g></svg>