<svg xmlns="http://www.w3.org/2000/svg" viewBox="0 0 288.4 300"><g fill="#fff"><path d="M56.2 199.8v3.3H55v-8.8h5.1v1.2h-3.9v3h3.3v1.2l-3.3.1zM82.8 203.2v-8.8H84v7.6h3.6v1.2h-4.8zM114.8 202c.4 0 .8-.1 1.2-.3.3-.1.7-.4 1-.7.3-.3.5-.6.6-1 .1-.4.2-.8.2-1.2s-.1-.8-.2-1.2c-.1-.4-.3-.8-.6-1-.3-.3-.6-.6-1-.7-.3-.1-.8-.3-1.2-.3s-.8.1-1.2.3c-.3.1-.7.4-1 .7-.3.3-.5.6-.6 1-.1.4-.2.8-.2 1.2s.1.8.2 1.2c.1.4.3.7.6 1 .3.3.6.5 1 .7.5.2.8.3 1.2.3m0-7.6c.6 0 1.2.1 1.7.3.6.2 1 .6 1.4 1s.7.9 1 1.4c.2.6.3 1.1.3 1.7s-.1 1.2-.3 1.7-.6 1-1 1.4c-.4.4-.8.7-1.4 1-.6.2-1.1.3-1.7.3s-1.2-.1-1.7-.3c-.6-.2-1-.6-1.4-1-.4-.4-.7-.9-1-1.4-.3-.5-.3-1.1-.3-1.7s.1-1.2.3-1.7c.2-.6.6-1 1-1.4.4-.4.8-.7 1.4-1 .6-.3 1.2-.3 1.7-.3M145.1 199.4c.3 0 .5-.1.7-.1.2-.1.4-.3.6-.4.1-.2.3-.4.4-.6.1-.2.1-.5.1-.8 0-.3-.1-.5-.1-.8-.1-.2-.2-.5-.4-.6-.1-.2-.3-.3-.6-.4-.2-.1-.5-.1-.7-.1h-1.7v3.9l1.7-.1zm3-1c-.1.3-.3.7-.5 1-.2.3-.5.6-.8.8l-.1.1 1.5 3h-1.4l-1.4-2.6c-.1 0-.2 0-.3.1H143.2v2.6h-1.3v-8.8h2.8c.3 0 .7.1 1 .1l.9.3c.6.4 1.1 1 1.3 1.7v.1l.1.1V197.9l.1.5c.1-.1.1-.1 0 0M171 194.4h1.3v8.8H171v-8.8zM198 202.1c.4 0 .8-.1 1.2-.3.3-.1.7-.4 1-.7.3-.3.5-.6.6-1s.2-.8.2-1.2-.1-.9-.2-1.2c-.1-.4-.3-.8-.6-1s-.6-.6-1-.7c-.3-.1-.8-.3-1.2-.3h-1.7v6.5l1.7-.1zm.2-7.7c.6 0 1.2.1 1.7.3s1 .6 1.3 1c.4.4.7.9.9 1.4.2.6.3 1.1.3 1.7s-.1 1.2-.3 1.7-.5 1-.9 1.4c-.3.4-.8.7-1.4 1-.6.2-1.1.3-1.7.3h-3v-8.8h3.1zM227.3 201.4h3.1l-1.6-4-1.5 4zm-2 1.8l3.6-8.8 3.6 8.8h-1.3l-.3-.7h-4l-.3.7h-1.3z"/></g><g fill="#3db2e3"><path d="M78.7 251.9l7.8-19.8 7.8 19.8H78.7zm11.6-40.7h-7.9l-15.9 39.1v17.9h5.8l1.9-4.7h24.5l1.8 4.7h13.2l-23.4-57zM155.4 240.3l15.1-3.7h.1l-.1 1.7v30l9.2 6 2.3-.1v-63h-11.5v13.7l-15.1 3.7v-17.4h-12.6v50.6l2.6 6.3h10V242l-3.4-.9zM230.9 286.6l5.7-3.7v-38l12.8 27.2 12.6-27v26.6l10.1 6.7 2.5-.1v-55.7h.6l6-9.1-.1-2.3H264.5l-2.6 5.4-12.5 26.5-12.7-26.6-2.6-5.3h-10.2v32.5l.1 5v40.7l2.5.1zM13.3 273.9v4.6h2.6L26 272v-26.8l12.6 27 12.7-27.1V283l5.7 3.8 4.4 2.9 2.5-.1v-45.7l.1-32.6H53.8l-2.5 5.4-12.7 26.5-10.2-21.3-5-10.6H7.2v2.3l6 9.2h.1V249zM220.6 256.6h-23.3v-14.1l-2.9-1.5h18l1.7-11.2h-16.8v-7.2h20.6l1.7-11.4h-33.9v50.6l2.6 6.3h32.3zM119.4 268.1h10v-18.8l10.4-22.6v-15.5h-6.9l-9.8 23.6-5.1-12.1-.1-.4-4.6-11.1H96.4v2.3l5.9 9.1h2.2l12.2 26.7v12.5z"/></g><path d="M186.8 90.1c.3.4.6.9.9 1.3.4.7.8 1.5 1.2 2.1 3.2 5.7 5.3 11.9 6.4 18.6 1.2 7.5 1 14.9-.6 22-1.7 7.1-4.4 13.6-8.4 19.3-1.7 2.6-3.7 4.9-6 7.1v-13.1l.1-57.4h.1l3.3-3.9c1.1 1.4 2 2.7 3 4m-21.5-13.2L157.9 89l-15.1 24.6L127.7 89l-7.5-12.1h-10.9c1.5-1.2 3-2.4 4.6-3.4 5.9-3.9 12.5-6.6 19.7-7.8 7.1-1.2 14.3-.9 21.2 1 6.9 1.8 13.2 4.8 18.8 9.1.5.3 1 .8 1.5 1.2l-9.8-.1zm-75.1 52.8c-1.2-7.5-1-15 .6-22.1 1.2-5.2 3-10 5.4-14.5.6-1 1.1-1.9 1.7-2.9.4-.7.8-1.3 1.3-2 .6-.9 1.2-1.7 1.9-2.6l3.9 4.6h.1l.1 56.3v13.2c-2.6-2.8-5.1-5.9-7.2-9.3a55.2 55.2 0 01-7.8-20.7M224.8 26.9c1.1-1.2 2.1-2.8 2.8-4.9.7-2.6 1-8.9-5.4-10.7.8 1.4 2.5 4.9.4 9.6-.3-.9-.7-1.7-1.2-2.4 1 3.3-.1 6.9-2.3 9.6 1.7-2.8 2.4-7-1-12.3-1.7-2.7-8-7.6-15.9-4.2 2.1.4 8.9 1.7 10 7-1.1-.5-2.4-.8-3.6-.9 4.3 1.9 6.9 5.4 7.6 9.2-1.4-3.5-4.3-6.8-9.9-6.9-3.5.3-9.6 2.8-10.6 12.5 1.3-1.8 3.5-6.9 9.8-5.6-1.5.5-2.4 1.7-2.2 3.5 4.3-3.7 9.6-2.9 12.5-.3-19.4 2.5-32.6 18.1-34.7 20.8l-12.4-8c-.3-.1-.6-.1-.8.1l-5.4 8.2c-1-.3-2.1-.6-3.3-.9-9.2-2.3-18.8-2.6-28.5-1-9.8 1.6-18.7 5.1-26.6 10.2-7.9 5.1-14.6 11.6-19.9 19-5.3 7.5-9.1 16-11.3 25.2-2.2 9.3-2.5 19-.8 28.9 1.6 9.8 5.1 18.8 10.1 26.7 5.1 8 11.4 14.8 18.8 20.2 1.3 1 2.6 1.9 4 2.7.6.3 1 .6 1.6 1l2.1.1.3-.1 14.8-7.5v-59.6l18.8 31.1 18.8-31.1v59.6l14.8 7.5.3.1 2.5-.1c.4-.3.9-.6 1.3-.8.3-.1.6-.3.8-.5 8-5.1 14.7-11.6 20-19 5.3-7.5 9.1-15.9 11.3-25.1 2.2-9.2 2.5-18.8.9-28.5-1.7-9.9-5.1-19-10.2-27-2.8-4.4-5.9-8.3-9.3-11.9l4.6-7.1c.1-.3.1-.6-.1-.8l-12.2-8c13.3-17 30.3-20.8 30.3-20.8-.9 4.6-2.8 8-8.4 8.6.6.7 2.1 1 3.7.3-1.1 5-10.5 4.7-13.1 4.4 8.9 7 17.6 2.4 19 1.2 4.7-5 3.9-10.4 1.9-14.4 2.5 3.8 3.2 8.8 1 13.8 1-1.1 1.8-2.3 2.4-3.6 1.9 1.9-1.5 11.6-3 13.7 9.4-3.2 10.3-12.3 10.1-15.9-1.2-7.1-5.1-10-8.7-11.2 4 .6 7.8 2.8 9.6 6.4.3-1.2-.4-2.7-1-3.2 4.5.3 5.8 6.7 6.2 8.5 5-13.1-8.8-15.6-11.3-15.4" fill="#cf4691"/></svg>