<svg xmlns="http://www.w3.org/2000/svg" viewBox="0 0 225 188.5"><g fill="#fff"><path d="M56.2 178.6h-4.4l5.3-11.3 5.9 13.6-2.2 2.4h10.7l-11.1-22.9H50.1l2.7 2.5-7.5 15.5h-6.2v-15.5l2.3-2.5H30.6l2 2.5v18l-2.8 2.4h29v-6.7zM43.9 153.2c-.1 0-.2.1-.2.3 0 .2-.1.4-.2.6-.2.2-.6.2-1.1.2-.8 0-1-.1-1.2-.2-.1-.1-.2-.9-.2-2.1v-4c0-.3.1-.4.3-.5h.4c.2 0 .3-.1.3-.2 0-.2-.3-.2-.3-.2h-2.8c-.1 0-.3 0-.3.2 0 .1.1.2.3.2h.3c.3.1.3.2.4.5v6.2c0 .3-.1.4-.2.4h-.3c-.2 0-.3.1-.3.2s0 .2.3.2h4.4c.6 0 .7 0 .8-.4.1-.4.1-.8.2-1.2-.4 0-.4-.2-.6-.2zM54.9 146.8c-3 0-4.4 2.2-4.4 4.2s1.3 4.2 4.3 4.2c2.6 0 4.4-1.8 4.4-4.4 0-2.5-1.6-4-4.3-4zm.4 7.6c-1.8 0-3.1-1.5-3.1-3.7 0-2.7 1.5-3.1 2.4-3.1 1.7 0 2.9 1.5 2.9 3.6 0 2.9-1.6 3.2-2.2 3.2zM68.4 150.1l-.3-.2c-.9-.7-1.1-1-1.1-1.4 0-.6.4-.9 1.1-.9.4 0 .8.1 1 .4.1.2.2.4.2.6 0 .3.2.3.2.3.2 0 .2-.3.2-.4v-1.3c0-.1-.1-.2-.2-.2-.5-.1-.9-.2-1.4-.2-1.5 0-2.5.9-2.5 2.1 0 .9.5 1.7 1.6 2.5l.5.4c.8.6 1 1.1 1 1.6 0 .6-.6 1.1-1.2 1.1s-1.2-.3-1.4-.9c0-.2-.1-.3-.1-.5 0-.3-.1-.3-.2-.3-.2 0-.2.3-.2.4v1.3c0 .3 0 .4.3.4.5.2 1 .3 1.6.3.6 0 1.2-.1 1.7-.4.6-.4 1-1.1 1-1.9-.1-1.1-.5-1.9-1.8-2.8zM92.2 154.6h-.4c-.1 0-.4-.1-.8-1.1s-1.1-2.6-1.6-4c-.4-1.1-.8-2.1-.9-2.3-.1-.2-.2-.4-.4-.4s-.3.2-.4.5l-2.6 6.5c-.2.5-.4.8-.8.9H84c-.2 0-.2.1-.2.2 0 .2.2.2.3.2h2.3c.2 0 .3-.1.3-.2 0-.2-.2-.2-.3-.2h-.2c-.3 0-.3-.1-.3-.2 0-.2.1-.4.1-.6l.6-1.5h2.3l.8 2.2v.1c-.1 0-.3 0-.3.2s.2.2.4.2h2c.4 0 .6 0 .6-.2s0-.3-.2-.3zm-3.6-3.1h-1.7l.9-2.3.8 2.3zM109.4 146.9h-2.3c-.1 0-.4 0-.4.2 0 .1 0 .2.3.2.2 0 .3 0 .5.1s.3.2.3.8l.1 4.4-.6-.6c-.5-.5-1.1-1.2-1.5-1.6-1.6-1.6-3.2-3.3-3.2-3.3l-.1-.1c-.1-.1-.2-.3-.4-.3-.3 0-.3.4-.3.5l-.1 6.1c0 .9-.1 1.1-.2 1.2-.1 0-.3.1-.4 0-.2 0-.3.1-.3.2 0 .2.2.2.3.2h2.3c.1 0 .4 0 .4-.2 0-.1-.1-.2-.3-.2-.2 0-.3 0-.5-.1-.1 0-.3-.2-.3-1l-.1-4c.4.5 1.3 1.5 2.2 2.4l1.4 1.4 1.7 1.7c.1.1.3.2.4.3.3 0 .3-.3.3-.4l.1-6.5c0-.6.1-.7.3-.8h.3c.3 0 .3-.1.3-.2.1-.4-.1-.4-.2-.4zM125.8 150.9h-2.7c-.1 0-.3 0-.3.2 0 .1 0 .2.3.2h.4c.3.1.3.2.4.5v2.2c0 .2 0 .2-.1.3-.3.1-.5.1-.8.1-2.1 0-3.5-1.5-3.5-3.8 0-1.1.3-1.9.9-2.4.6-.4 1.3-.7 2-.6.8 0 1.6.2 2.2.8.2.2.3.5.3.8 0 .1.1.2.2.2.2 0 .2-.2.2-.3 0-.5 0-1 .1-1.6v-.1c0-.2-.1-.2-.3-.2-.3 0-.5-.1-.8-.1-.6-.1-1.2-.2-1.9-.2-1-.1-2 .2-2.8.7-1.2.8-1.9 2.1-1.9 3.5 0 3.1 2.5 4.2 4.9 4.2.9 0 1.7-.1 2.6-.5.2-.1.2-.2.2-.5v-2.4c0-.3.1-.4.3-.5h.3c.2 0 .3-.1.3-.2-.2-.3-.4-.3-.5-.3zM140.2 153.2c-.2 0-.2.2-.2.3-.1.4-.2.6-.4.7-.3.1-.6.1-.9.1-1.1 0-1.1-.2-1.1-.8v-2.4h1.4c.4 0 .4.2.5.3v.4c0 .1.1.2.2.2.2 0 .2-.2.2-.3v-.7c0-.3.1-.5.1-.6v-.1c0-.1-.1-.2-.2-.2s-.2.1-.3.2c-.1.1-.2.1-.4.1h-1.6v-2.6h1.4c.5.1.5.2.6.3 0 .1.1.2.1.3 0 .2.2.3.2.3.1 0 .2 0 .2-.2v-.7c0-.2 0-.4.1-.6v-.1c0-.2-.2-.2-.2-.2h-.2c-.1 0-.3 0-.4.1h-4.1c-.1 0-.3 0-.3.2 0 .1.1.2.3.2h.4c.3.1.3.2.4.5v6.2c0 .3-.1.4-.2.4h-.3c-.2 0-.3.1-.3.2s0 .2.3.2h4.2c.4 0 .6 0 .7-.4.1-.4.1-.8.1-1.2-.1.1-.1-.1-.3-.1zM153.5 153.2c-.1 0-.2.1-.2.3 0 .2-.1.4-.2.6-.2.2-.6.2-1.1.2-.8 0-1-.1-1.2-.2-.1-.1-.2-.9-.2-2.1v-4c0-.3.1-.4.3-.5h.4c.2 0 .3-.1.3-.2 0-.2-.3-.2-.3-.2h-2.8c-.1 0-.3 0-.3.2 0 .1.1.2.3.2h.3c.3.1.3.2.4.5v6.2c0 .3-.1.4-.2.4h-.3c-.2 0-.3.1-.3.2s0 .2.3.2h4.4c.6 0 .7 0 .8-.4.1-.4.1-.8.2-1.2-.4 0-.4-.2-.6-.2zM166.7 153.2c-.2 0-.2.2-.2.3-.1.4-.2.6-.4.7-.3.1-.6.1-.9.1-1.1 0-1.1-.2-1.1-.8v-2.4h1.4c.4 0 .4.2.5.3v.4c0 .1.1.2.2.2.2 0 .2-.2.2-.3v-.7c0-.3.1-.5.1-.6v-.1c0-.1-.1-.2-.2-.2s-.2.1-.3.2c-.1.1-.2.1-.4.1H164v-2.6h1.4c.5.1.5.2.6.3 0 .1.1.2.1.3 0 .2.2.3.2.3s.2 0 .2-.2v-.7c0-.2 0-.4.1-.6v-.1c0-.2-.2-.2-.2-.2h-.2c-.1 0-.3 0-.4.1h-4.1c-.1 0-.3 0-.3.2 0 .1.1.2.3.2h.4c.3.1.3.2.4.5v6.2c0 .3-.1.4-.2.4h-.3c-.2 0-.3.1-.3.2s0 .2.3.2h4.2c.4 0 .6 0 .7-.4.1-.4.1-.8.1-1.2-.1.1-.1-.1-.3-.1zM177.2 150.1l-.3-.2c-.9-.7-1.1-1-1.1-1.4 0-.6.4-.9 1.1-.9.4 0 .8.1 1 .4.1.2.2.4.2.6 0 .3.2.3.2.3.2 0 .2-.3.2-.4v-1.3c0-.1-.1-.2-.2-.2-.5-.1-.9-.2-1.4-.2-1.5 0-2.5.9-2.5 2.1 0 .9.5 1.7 1.6 2.5l.5.4c.8.6 1 1.1 1 1.6 0 .6-.6 1.1-1.2 1.1s-1.2-.4-1.4-1c0-.2-.1-.3-.1-.5 0-.3-.1-.3-.2-.3-.2 0-.2.3-.2.4v1.3c0 .3 0 .4.3.4.5.2 1 .3 1.6.3.6 0 1.2-.1 1.7-.4.6-.4 1-1.1 1-1.9 0-1-.5-1.8-1.8-2.7z"/></g><path d="M28.6 160.4v7.2l-2.7-2.6h-7.8c-3.3.2-5.6 2.3-5.6 6.9 0 4.6 2.5 6.9 6.7 6.9 1.3 0 2.6-.1 3.8-.5V175l-5.4-3.1h11.9v9.4c-2.5 1.6-6.4 2.4-11.5 2.4-8.2 0-12.3-4-12.3-12.1 0-7.7 4.7-11.3 14-11.3l8.9.1zM83.6 160.4H67.9l4.6 4.2-.1 18.7h11.3c8.6 0 12.9-3.8 12.9-11.4.1-7.7-4.3-11.5-13-11.5zm-.6 18h-3.3V165h3.2c4.5 0 6.7 2.2 6.7 6.7 0 4.4-2.2 6.7-6.6 6.7z" fill="#fff"/><path fill="#fff" d="M97.9 162.4v18.5l-2.1 2.4h26v-6.7l-2.6 2h-4.4l5.3-11.3 5.9 13.6-2.2 2.4H144.1l-1.3-1.7v-15.9h5.3l2.8-5.3h-23.2v6.6l1.7-1.3h6.5v15.9l-1.2 1.4-11.3-22.6h-10.3l2.7 2.5-9.4 19.6-1.6-1.6v-18.5l1.9-2H95.9z"/><path d="M161.7 159.5c-8.9 0-13.4 4-13.4 11.9 0 8.2 4.5 12.3 13.6 12.3 8.7 0 13-4 13-12 0-8.2-4.4-12.2-13.2-12.2zm.2 19.2c-4.2 0-6.3-2.5-6.3-7.4 0-4.6 2-6.9 6-6.9 4.1 0 6.1 2.4 6.1 7.2 0 4.7-1.9 7.1-5.8 7.1z" fill="#fff"/><path d="M198 167.3c0-4.6-2.9-6.9-8.7-6.9h-14.4l1.3 1.6v18.8l-2.4 2.6h11.1l-1.9-2.7v-5.5h3l4.3 6.5-1.4 1.7H199l-6.2-9.1c3.5-.9 5.2-3.2 5.2-7zm-10.4 2.4H183v-4.6h4.6c1.3 0 3.4 0 3.5 1.6.1 2.1-1.2 3-3.5 3zM213.1 169.6c-4.5-1.3-6.5-2.2-6.5-3.2s.6-1.5 2.3-1.5h7.5l2.4 1.8v-6.4H205c-.6.1-1.2.3-1.7.6-2.4 1.4-3.7 3-3.7 5.3 0 1.7.6 3.3 1.6 4.5 1.4 1.4 3.5 2.4 6.4 3.3 3.5 1 4.9 1.7 4.9 2.7 0 1-1.3 1.3-2 1.5h-7.3l-3.6-3.4v8.4H210c6.4 0 9.4-2.2 9.4-7-.1-3-1.8-5-6.3-6.6zM145.4 102.7c2.6 2.1 5.3 4.3 7.4 6-.5.5-1.1 1.1-1.7 1.6l-5.7-7.6z" fill="#fff"/><path d="M73.9 16.6l5.8.9c.6 0 .4-.5.4-.5v-4.3c9.9-5.3 20.9-8 32.1-8 37.2 0 67.4 29.9 67.4 66.8 0 17-6.5 33.4-18.3 45.7l-4.2-4.4s-5.9-5.1-11.8-9.8l8.1 10.9s3.4 4.3 4.4 6.7c-27.3 24.8-69.5 23.2-94.9-3.7v-6.7c0-.2-.2-.5-.4-.6l-7.4-6.5c-.2-.1-.5-.1-.8 0l-1.1.5c-16.6-30-7.7-67.7 20.7-87z" fill="#3c1053"/><g fill="#fff"><path d="M87.5 18.7c25.6-11.8 55.3-3.4 71.7 18.5C143 16.8 113 9.7 88.6 21 63.8 32.4 49.5 60.5 55.1 86.4c-6.6-27 6.4-55.7 32.4-67.7zM170.3 66.7c.8 16.1-4.9 31.9-16 43.7l-1.6-1.3c11.2-11.1 18-26.4 17.6-42.4zM125.2 124.8c9.6-2.4 18.5-7.3 25.8-14l1.3 1.7c-7.4 7.2-16.5 12.2-26.5 14.7-27.4 6.9-55-6.9-67-31.6 12.2 23.1 40.3 35.7 66.4 29.2z"/><path d="M160.5 47.9h-4.1c-5.1-2.3-10.8-2.9-10.8-2.9 0-.4.1-.7.3-1.1.2-.4.2-.8-.1-1.2-2.6-2.1-5.8-3.4-9.2-3.7-.7-1.9-2.4-5.6-2.4-5.6-.3-1-1.1-1.9-2.1-2.3-3.6-2.2-11.8-4.1-14.3-4.7-2.5-.5-7.9-.8-7.9-.8H99.3c-3.8.2-7.6-.6-11-2.4v.8c.8 2.1 1.7 4.1 2.7 6.1-9 14.3-.4 28.1-.4 28.1-13.6-14.1-4.4-25.8-4.4-25.8C76.2 35.7 69.4 48 69.4 48c-.3.7-.8 1.4-1.3 1.9-.2.3-3.1 3.2-3.1 3.2-1.9 2.5-7.1 4.2-7.1 4.2 2.2 2.2 5.3 3.3 8.4 3.1-1 5.7-.3 12.1-.3 12.1 2.5 15.1 8.2 17.2 8.2 17.2l7.4 1.6c20.9 7.4 25.8 14.3 25.8 14.3-.7-6.8-4.9-11.6-10.4-15.7-4.6-3.5-8.6-7.7-11.8-12.6 0 0 7.4 6.4 13.7 9.8 21.7 11.6 14.9 25.6 14.9 25.6-1.5 4.4-6.2 8-6.2 8 7.4 0 11.6-2.3 11.6-2.3 8-4.1 10.6-8.5 10.6-8.5-.7-8.8-8.7-29.8-8.8-30.2-.5-1.5-3.5-8.1-3.5-8.1 5.7-.4 7.8 1 7.8 1 .4 1.5.4 3 .1 4.5-.4 1.2-.9 2.4-1.6 3.5 1.1-.2 2.2-.2 3.3 0 8.5 2 9 8.6 9 8.6-1.4 2.1-4.5 3.5-4.5 3.5 1.6.6 3.2 1 4.9 1.2l3.8-1.6c4-1.8 7-6 7-6 .2-.2.2-.4.2-.7-1.9-3.6.6-7.8.6-7.8l-.2-3.2-.2-.1c-.5 1.5-1.6 2.6-3 3.3-1.1.3-2.8 0-2.8 0-3.9-1.2-5-2.5-5-2.5-1.5-3.6-1.1-5-1.1-5 1.7-4.6 5.2-8.3 9.7-10.3 1-.2 1.3.2 1.3.2 3.9 4 6.1 3.6 6.1 3.6.2-.2.3 0 .3 0 .2.6-.2 3.4-.2 3.4 3.8-2.4 6.4-10.1 6.4-10.1.3-1 0-1.2 0-1.2-1.8-2.5-5.7-6.1-5.7-6.1 2.2.8 4.3 1.9 6.2 3.2.4-1.1.6-5.1.6-5.1zm-47-12.1s-3.8-2.8-10-3.1c0 0-.8 0-.8.6 0 0-.2 4.1.7 7.4 0 0 0 .5 1.1 1.2l5 3.7s.6.3.9 2.2l3.5 16.4s-4.7-11.4-8.1-16.5c0 0-3.3-1.9-4.8-3.5-1.8-4.7-2.1-9.9-1.1-14.9 0 0 0-.4 1.1-.3 0 0 2.5-.7 12 4.5 0 0 7.2-.1 10.8 1.5 0 0-7.8 0-10.3.8zm20.2 10.9l6.1-1s1.6-.6 1.7.8l-.1 2.3 1.2 1.9-8.9-4z"/></g></svg>