<svg xmlns="http://www.w3.org/2000/svg" viewBox="0 0 225 171.8"><path d="M119.543 47.894h-27.9l-11 14.1h13.9l-7.3 12.3h-10.2c-1.3 0-5.3-1.6-8.5-5.3-2.5-2.9-5.3-7.9-4.2-15.3 1.9-13.7 15.9-20.6 18.5-20.6h15.6l-.5 6.9 1-1.3 26.8-34.4-29.5 13.1h-11.6c-6 0-14.3 3.8-21.1 9.6-8.3 7.1-13.6 16.5-15 26.3-1.5 10.5 1.4 20.2 8 27.4 5.2 5.7 12.5 9.4 18.6 9.4h20.9l23.5-42.2z" fill="#67a2b2"/><path fill="#67a2b2" d="M123.743 89.094h41.2l12.3-15.7h-43.4l42.5-56.1h-48.6l-9.4 15.8h27.3l-33.9 44.7-22 28z"/><g fill="#0fefd9"><path d="M39.514 122.293h-2.482l-1.304-1.005.094-.173v-3.707l-.094-.189 1.304-1.005h3.488v1.492l-.362-.298h-2.67l-.378.282v3.11l.378.284h1.618l.377-.283v-1.775l-.299-.346h1.838l-.298.346v2.34l-1.21.927zM58.052 116.606l-.299-.345h1.854l-.298.345v4.54l.094.173-1.304.99h-2.435l-1.288-.99.094-.172v-4.54l-.299-.346h1.854l-.298.345v4.21l.377.3h1.57l.378-.3v-4.21zM74.123 121.21l-.267.753.236.346h-1.996l.362-.346 2.026-5.34-.314-.362h2.137l-.315.361 2.011 5.341.346.346h-2.074l.314-.346-.25-.738-2.216-.016zm1.822-1.163l-.738-2.027-.691 2.027h1.43zM95.237 119.764v-3.173l-.298-.362h1.838l-.299.362v5.341l.299.346H95l.268-.346-2.231-3.236v3.236l.298.346h-1.854l.299-.346v-5.341l-.299-.362h1.76l-.204.33 2.2 3.205zM113.79 122.293h-2.497l-1.304-1.005.094-.173v-3.707l-.094-.189 1.304-1.005h3.487v1.492l-.361-.298h-2.686l-.378.282v3.11l.378.284h1.618l.392-.283v-1.775l-.298-.346h1.838l-.299.346v2.34l-1.193.927zM128.448 121.162l2.985-3.739h-2.608l-.361.314v-1.492h3.974l.896.895-3.095 3.96h2.796l.361-.315v1.493h-3.801l-1.147-1.116zM148.54 116.23l-.298.36v1.477h2.31v-1.476l-.299-.362h1.838l-.298.362v5.341l.298.346h-1.838l.299-.346v-2.67h-2.31v2.67l.299.346h-1.854l.299-.346v-5.341l-.299-.362h1.854zM169.23 122.293h-2.623l-1.304-1.005.095-.173v-3.707l-.095-.189 1.304-1.005h2.64l1.288 1.005-.11.189v3.707l.11.173-1.304 1.005zm-.046-4.571l-.377-.283h-1.76l-.377.283v3.11l.377.283h1.76l.377-.283v-3.11zM187.721 116.606l-.298-.345h1.854l-.299.345v4.54l.094.173-1.32.99h-2.434l-1.289-.99.095-.172v-4.54l-.299-.346h1.854l-.298.345v4.21l.377.3h1.57l.378-.3.015-4.21z"/></g><g fill="#fff"><path d="M21.448 150.21c-4.635-.236-5.106-2.734-4.148-4.635.943-1.9 2.121-3.801 4.242-7.242s6.504-3.613 10.651-3.613 9.395.55 9.395.55l3.173-5.797c-14.123-1.43-19.323-.849-25.136 1.398-5.812 2.246-7.807 6.284-10.18 10.321-2.372 4.038-4.006 6.52-3.801 9.6.44 5.576 9.598 5.686 13.054 5.686 7.698 0 12.207-1.131 12.207-1.131l3.08-6.048c0 .015-7.919 1.146-12.537.91zM192.529 150.1l2.419-4.509h14.107l3.08-5.813h-14.077l2.671-4.98h15.569l3.079-5.812h-26.22l-14.343 26.66h26.69l3.08-5.546zM182.144 140.25h-17.092l-3.08 5.797h7.039l-2.152 4.053a30.624 30.624 0 01-5.86.581c-4.65-.236-5.137-2.718-4.18-4.634.96-1.901 2.499-4.619 4.651-8.06 2.152-3.44 6.441-3.44 10.62-3.44a96.63 96.63 0 019.772.707l3.11-5.797c-14.202-1.43-19.355-.974-25.199 1.273-5.844 2.246-8.232 6.41-10.62 10.43s-4.053 6.52-3.817 9.6c.44 5.577 9.662 5.687 13.133 5.687 8.468 0 16.637-3.08 16.637-3.08l7.038-13.117zM96.73 128.986l-27.524 26.66h10.683l6.472-6.85h10.29l-.864 6.85h10.683l.942-26.66H96.73zm-5.216 14.249l6.74-7.29-.896 7.274-5.844.016zM45.735 155.645l5.844-10.777h9.835l-5.844 10.777h10.682l14.343-26.66H69.928l-5.53 10.322h-9.834l5.514-10.337-10.667.016-14.359 26.66zM142.775 128.939h-25.544l-8.908 22.198h4.006l-7.006 16.417 16.92-17.988h-4.446l6.268-14.956h11.986c1.1 0 1.917.55 1.446 2.184-.472 1.633-1.414 4.037-4.572 4.037-3.173 0-4.964-.047-4.964-.047l-2.545 5.624 3.566 9.285h10.73l-4.572-9.348c4.18-.235 8.217-1.257 10.51-5.058 2.765-4.588 1.65-2.844 3.048-6.002s-.911-6.346-5.923-6.346z"/></g></svg>