<svg xmlns="http://www.w3.org/2000/svg" viewBox="0 0 300 227.7"><path d="M206.737 197.021a18.055 18.055 0 015.66 2.902l-.048.048s-4.057 2.053-6.43 2.678l-1.812-1.074-10.198-5.9-.177-.097-.24-.144-3.769-2.197c-2.886-1.684-7.825-4.81-10.727-6.67h-17.75l1.01-1.733s-2.342.738-7.44 1.123l-.049.08v4.025c11.738.08 23.973 1.058 29.216 3.88 4.57 2.47 13.133 8.066 15.81 9.83l.065.048.4.256.241.145.128.08c.193.192.385.4.545.61l.033.031a29.943 29.943 0 013.303 5.564c2.71-.048 8.947-2.822 11.256-3.896v-12.235l-5.564-3.351-3.463 5.997zm-76.407-1.603h1.25c2.759-1.46 7.425-2.71 11.738-3.64v-4.442c-3.127.4-6.221.978-9.3 1.7l-3.688 6.382zm68.902-8.884H181c6.35 2.02 13.438 5.757 14.512 6.35l3.72-6.35zm-85.114 2.902l-3.832 6.623c1.7.722 3.784 1.587 5.26 2.197l4.153-7.2-.722.064c-.016 0-2.517-.85-4.859-1.684zm152.044.321a41.79 41.79 0 01-6.734 5.372s4.634.738 14.48-5.837a20.014 20.014 0 01-7.746.465zm10.423-8.963c-4.377 1.058-10.84.994-10.84.994l-6.67-.193-21.824 18.184.096.08c5.372-2.18 15.683-5.019 15.683-5.019.465-3.848 4.874-8.162 4.874-8.162a17.34 17.34 0 016.703-.994c2.63.113 1.732 2.213 1.732 2.213 4.634-1.106 13.934-3.03 13.934-3.03a29.51 29.51 0 004.474-3.207 111.817 111.817 0 0010.663-9.381c-4.65 2.886-14.447 7.472-18.825 8.515zm-112.758-6.158a13.71 13.71 0 01-4.153 2.854l-1.812 3.127a42.967 42.967 0 017.424-1.09l2.421-4.17.08-.128h11.08l-8.145-5.628s-6.03-.77-6.157-.673c-1.957 1.363-7.377-1.684-7.377-1.684l-9.733-4.04a38.392 38.392 0 014.586 3.27c1.475 1.363 3.576 2.95 3.576 2.95 6.206.738 8.21 5.212 8.21 5.212zm-23.78-7.055c-.128-.048 2.421-1.427 8.21-2.053l-15.009-2.806c0 .016 6.911 4.907 6.8 4.859z" fill="#5788ce"/><g fill="#fff"><path d="M160.925 175.406l-32.054-.08-.048.08h-.049l-28.173 48.698 13.117.048.032-.048h.048l10.15-17.59h19.386v17.767h11.45v-38.292l6.14-10.583zm-30.595 19.996l5.115-8.868h7.873v8.884l-12.988-.016zM64.683 212.976H53.827l-20.99-26.442h13.71l8.803-11.208-46.55.08h-.256l29.81 37.57H12.071l-7.537 11.128 66.77.08 10.294-17.67 22.594.048 18.04-31.156h-.065l.048-.08H62.438l-.048.08h-.033l-7.424 11.128h47.704l-5.115 8.851H69.14l.032.033h-.016l3.464 3.912zM266.675 175.278h-17.398l-22 18.296v-18.296h-59.473l-.08.128-6.479 11.128h37.987l-5.195 8.884h-.545l10.599 6.157 11.673-20.172v41.418l-19.434-16.275h4.842l.53-.914c-.337-.481-.722-.93-1.139-1.363 0 0-8.194-5.452-13.982-8.867h-28.046l2.71 2.918v25.896h11.578v-17.702h5.452l21.005 17.718h28.014v-16.147l1.298-1.074 20.51 17.221h17.573l-29.392-24.437 29.392-24.517zM97.73 49.932l4.154 2.47 74.514-.706-8.835 14.4-47.576 2.308-.946 9.541-9.444 10.006-2.117 10.086-8.258 8.194-8.483 11.08-40.6-6.799-1.283.16 15.233 24.165h33.353l59.875-32.39-13.87-1.219-4.378-10.711 127.558-37.25h-56.731l19.482-15.586-109.022 3.897 32.31-38.131L66.27 27.948 31.298 72.285l11.192-1.876 4.955-4.218L66.19 45.346l29.408-8.996 16.003-9.268 5.227 5.789-10.823 12.876z"/></g><g fill="#5788ce"><path d="M83.187 157.575v-2.838h-3.079v2.838h-.994v-6.558h.994v2.581h3.079v-2.581h.994v6.558h-.994zM103.022 157.575l-.497-1.347H99.72l-.497 1.347h-1.026l2.55-6.558h.865l2.486 6.558h-1.075zm-1.892-5.083l-.994 2.63h1.956l-.962-2.63zM141.667 157.575h-3.191c-.61 0-.962-.497-.962-1.267v-4.025c0-.77.384-1.266.962-1.266h3.207c.609 0 .978.48.978 1.266v.465l-.994.24v-.849h-3.175v4.281h3.159v-1.507h-1.604v-1.042h2.582v2.421a1.15 1.15 0 01-.962 1.283zM156.691 157.575v-.61l3.16-4.842h-2.855v-1.138h4.458v.56l-3.191 4.843h3.223v1.139l-4.795.048zM179.621 157.575v-2.838h-3.078v2.838h-.994v-6.558h.994v2.581h3.078v-2.581h.995v6.558h-.995zM198.863 157.575h-3.239c-.609 0-.962-.513-.962-1.267v-4.025c0-.801.353-1.266.962-1.266h3.24c.609 0 .978.465.978 1.266v4.01c0 .753-.401 1.282-.979 1.282zm0-5.452h-3.19v4.297h3.19v-4.297zM217.865 157.575h-2.967c-.577 0-.962-.53-.962-1.267v-5.291h1.01v5.42h2.903v-5.42h1.01v5.275c-.048.754-.449 1.283-.994 1.283zM119.282 152.845l3.11 3.27v1.46h1.027v-6.558h-1.026v3.303l-3.111-3.303h-1.026v6.558h1.026z"/></g></svg>