<svg xmlns="http://www.w3.org/2000/svg" viewBox="0 0 194.4 225"><path d="M47.379 177.062h-3.121v-4.65h-1.986v11.223h1.986v-4.65h3.12v4.65h2.003v-11.208h-1.986l-.016 4.635zm17.938-4.65h-1.986a2.55 2.55 0 00-2.554 2.538v6.131a2.526 2.526 0 002.522 2.554h2.018a2.55 2.55 0 002.554-2.538v-6.132a2.55 2.55 0 00-2.538-2.553h-.016zm.568 8.307a.888.888 0 01-.773.993.597.597 0 01-.236 0H63.74a.888.888 0 01-.993-.773.52.52 0 010-.22v-5.36a.888.888 0 01.772-.993.52.52 0 01.22 0h1.136a.888.888 0 01.993.773.52.52 0 010 .22l.016 5.36zm18.49 0a.888.888 0 01-.773.993.52.52 0 01-.22 0h-1.135a.888.888 0 01-.994-.773.52.52 0 010-.22v-8.292h-1.986v8.67a2.526 2.526 0 002.522 2.554h2.018a2.55 2.55 0 002.554-2.538v-8.686h-1.97l-.016 8.292zm14.959-6.368h1.135c.488-.064.93.299.993.788v.11l1.986-.489a2.568 2.568 0 00-2.554-2.333h-1.986a2.55 2.55 0 00-2.554 2.538v.836c0 1.182.773 2.222 1.892 2.57l2.585 1.04a.83.83 0 01.646.898v.378a.888.888 0 01-.772.993.52.52 0 01-.22 0h-1.151c-.49.063-.93-.3-.993-.788v-.142l-1.987.489a2.55 2.55 0 002.554 2.364h1.986a2.54 2.54 0 002.554-2.537v-1.104c0-1.182-.773-1.907-1.86-2.349l-2.68-1.056c-.489-.205-.583-.441-.583-1.087v-.142c-.063-.489.3-.93.788-.993a.52.52 0 01.22 0v.016zm14.107 0h2.554v9.284h1.986v-9.284h2.554v-1.924h-7.11l.016 1.924zm23.03-1.924h-1.986a2.55 2.55 0 00-2.554 2.538v6.132a2.526 2.526 0 002.523 2.554h2.017a2.55 2.55 0 002.554-2.538v-6.132a2.553 2.553 0 00-2.554-2.554c.016 0 .016 0 0 0zm.568 8.292c.063.488-.3.93-.788.993h-1.325a.888.888 0 01-.993-.773.52.52 0 010-.22v-5.36a.888.888 0 01.773-.993.52.52 0 01.22 0h1.135a.888.888 0 01.993.773.52.52 0 010 .22l-.015 5.36zm17.103-8.292v6.558l-3.248-6.558h-1.86v11.224h1.986v-6.526l3.248 6.526h1.86v-11.224h-1.986z" fill="#fff"/><path d="M83.917 190.996H62.15v5.25h7.77v6.935l-2.758 2.238 2.759 2.254v12.06h6.226v-12.06l2.775-2.254-2.775-2.238v-6.936h7.771zM95.33 205.435l-2.759-2.238v-12.185h-6.226v12.185l-2.774 2.238 2.774 2.238v7.96l5.028 4.1h13.084v-5.25H95.14l-2.57-2.08v-4.73zM141.106 219.732h17.197l5.013-4.035v-8.024l2.774-2.238-2.774-2.238v-12.185l-6.227 5.296v16.094l-2.57 2.081h-1.67V196.23h-6.226v18.253h-1.671l-2.57-2.08v-16.095l-6.21-5.296v12.185l-2.775 2.238 2.775 2.238v8.024zM129.488 195.236l-5.217-4.224h-12.327l-5.218 4.224v7.977l-2.758 2.238 2.758 2.238v12.059l6.227-5.06v-6.999l.11-.079h10.246v7.078l6.195 5.06v-12.059l2.759-2.238-2.759-2.238v-7.977zm-6.226 7.96h-10.34v-4.917l2.458-1.86h5.423l2.459 1.86v4.918zM36.487 207.547v7.96l5.217 4.225h12.343l5.217-4.224v-7.96l2.774-2.255-2.774-2.238v-12.059l-6.21 5.06v7.267l-2.601 2.096 2.6 2.113v4.902l-2.459 1.86h-5.422l-2.46-1.86v-4.855l2.665-2.16-2.664-2.16v-7.203l-6.226-5.06v12.059l-2.775 2.238zM30.197 203.055v-7.834l-5.217-4.225H12.637l-5.217 4.225v7.834l-2.87 2.317 2.87 2.301v7.835l5.217 4.24H24.98l5.217-4.225v-7.834l2.853-2.317-2.853-2.317zm-6.226.268l-2.585 2.112 2.585 2.097v4.918l-2.444 1.86H16.09l-2.459-1.86v-4.855l2.68-2.144-2.68-2.16v-4.996l2.46-1.86h5.422l2.459 1.86v5.028zM177.818 208.509l5.138 4.287-1.986 1.498h-5.265l-2.474-1.86v-2.822h-6.211v5.896l5.217 4.224h12.201l5.407-4.335v-4.13l-7.235-6.053v-3.184h-3.815l-5.044-4.24 1.797-1.356h5.422l2.46 1.86v2.649h6.226v-5.707l-5.218-4.24H172.08l-5.218 4.24v4.115l7.125 5.974v3.184z"/><path fill="#fff" d="M115.601 56.695L98.876 44.558 82.168 56.695l6.384-19.64-16.71-12.153h20.65L98.876 5.26l6.384 19.64h20.666L109.2 37.056z"/><path d="M145.33 53.905l-1.025.268c-17.024 2.018-24.858 8.008-24.858 8.008-2.963 2.885-4.87 3.673-4.87 3.673-1.42.441-2.901.725-4.383.851-.268-.063-.993.615-.993.615a13.204 13.204 0 00-5.753 6.557 13.352 13.352 0 00-2.05-.772 10.13 10.13 0 00-5.09-.032c-.742.22-1.467.489-2.176.804a13.1 13.1 0 00-5.738-6.557s-.725-.678-.993-.615a20.916 20.916 0 01-4.382-.851s-1.907-.788-4.855-3.673c0 0-7.834-6.006-24.858-8.008l-1.025-.268s-.19.174-.079.678l3.437 16.945 1.954-1.418s.158-.205.757-.22c0 0 9.836-.679 12.752 2.773 0 0 1.072 1.482 1.23 2.743 0 0 .268.725-1.561 1.97 0 0-3.594 1.64-4.319 3.09a9.31 9.31 0 00-.158 5.564s.316 1.057.6 1.908c0 0 .96 2.869 5.453 3.09 0 0 2.712.141 3.452 1.245.52.693.93 1.45 1.183 2.285l1.292 5.612a5.239 5.239 0 001.293 2.648s1.939 2.112 2.884 2.916c0 0 .11.079.095.378v10.042a1.897 1.897 0 001.34 1.86.79.79 0 01.52.315c.71.961 1.23 2.049 1.498 3.2l.898 30.674s-.268.615 1.734 1.782l.284.047 3.231.441.489.268h.488v3.058s-.047.852 1.435 1.104h2.506s1.214-.063 1.15-1.12v-.567h1.498v.568c-.063 1.056 1.151 1.119 1.151 1.119h2.506c1.482-.252 1.435-1.104 1.435-1.104v-3.042h.488l.49-.268 3.23-.441.284-.048c2.002-1.166 1.734-1.78 1.734-1.78l.899-30.676a9.022 9.022 0 011.497-3.2.756.756 0 01.52-.315 1.897 1.897 0 001.34-1.86v-10.057c0-.299.095-.378.095-.378.946-.788 2.884-2.916 2.884-2.916a5.239 5.239 0 001.293-2.648l1.261-5.612a7.881 7.881 0 011.182-2.285c.741-1.104 3.452-1.246 3.452-1.246 4.461-.236 5.454-3.09 5.454-3.09.284-.85.6-1.907.6-1.907a9.31 9.31 0 00-.158-5.564c-.725-1.466-4.32-3.09-4.32-3.09-1.828-1.245-1.56-1.97-1.56-1.97.158-1.26 1.23-2.743 1.23-2.743 2.916-3.452 12.752-2.774 12.752-2.774.599 0 .756.22.756.22l1.955 1.42 3.452-16.946c0-.504-.189-.678-.189-.678zM75.137 88.426a4.926 4.926 0 01-3.436.836c-1.434-.252-2.617-1.277-3.026-2.68a7.962 7.962 0 01-.426-3.483c.3-1.813 1.687-2.113 3.452-2.333 2.837-.379 3.452.82 3.452.82 1.025 1.34 1.025 4.68 1.025 4.68a3.065 3.065 0 01-1.056 2.176l.015-.016zm25.473 58.087c.063.93-.3 1.844-.961 2.49v5.045h-1.64v-5.029a3.143 3.143 0 01-.961-2.49l-.142-30.896c.063-.772.41-1.497.993-2.017h1.829c.583.52.93 1.245.993 2.017l-.11 30.88zm.804-68.805l-1.213 2.443c-.158.33-.284.662-.41.993v25.473h-1.986V81.144a6.912 6.912 0 00-.41-.993l-1.214-2.443a1.335 1.335 0 01.142-1.388c2.79-1.639 4.886 0 4.886 0 .347.379.41.915.205 1.388zm24.512 3.042c1.765.22 3.12.52 3.452 2.333a8.012 8.012 0 01-.441 3.5 3.8 3.8 0 01-3.027 2.679 4.956 4.956 0 01-3.42-.82 3.127 3.127 0 01-1.057-2.175s0-3.358 1.025-4.682c.031-.016.71-1.198 3.468-.835z"/><path d="M49.822 53.48a6.016 6.016 0 01-1.497-.41 13.629 13.629 0 01-5.912-10.876s-1.087-7.693 3.705-14.187v-.757s-11.964 9.38-11.964 21.58c0 0 .3 9.426 3.215 13.572 0 0 4.288 6.258 16.346 8.748l-3.893-17.67zM151.493 27.25v.757c4.76 6.494 3.689 14.187 3.689 14.187a13.631 13.631 0 01-5.927 10.892c-.457.189-.93.33-1.419.394l-3.877 17.67c11.995-2.49 16.283-8.733 16.283-8.733 2.916-4.161 3.215-13.571 3.215-13.571 0-12.233-11.964-21.596-11.964-21.596z" fill="#fff"/></svg>