<svg xmlns="http://www.w3.org/2000/svg" viewBox="0 0 293.1 300"><path d="M193.616 167.126a732.617 732.617 0 0111.313 9.23 72.742 72.742 0 01-2.564 2.42l-8.749-11.65z" fill="none"/><g fill="#ff8200"><path d="M15.06 282.21c0-.512-.352-.8-1.009-.8H9.805c-.641 0-1.01.288-1.01.8v1.635c0 .53.353.69 1.01.801l5.496.946c2.308.4 4.246 1.506 4.246 3.397v3.029c0 1.987-1.714 3.349-4.198 3.349H8.731c-2.483 0-4.198-1.362-4.198-3.35v-2.163h4.134v1.507c0 .512.353.8 1.01.8h4.615c.64 0 1.01-.288 1.01-.8v-1.811c0-.529-.353-.69-1.01-.801l-5.497-.946c-2.307-.4-4.246-1.506-4.246-3.397v-2.868c0-1.987 1.715-3.35 4.198-3.35h6.25c2.483 0 4.198 1.363 4.198 3.35v1.987h-4.134v-1.314zM86.928 278.301h4.247v16.97h-4.247V278.3zM129.68 281.458v13.796h-4.246v-13.796h-5.56V278.3h15.367v3.157h-5.56zM159.117 278.301h13.924v3.205h-9.694v3.637h9.63v3.205h-9.63v6.922H159.1l.017-16.969zM202.445 278.301h4.247v16.97h-4.247V278.3zM288.542 278.301v3.205h-9.694v3.477h9.166v3.205h-9.15v3.862h9.694v3.204h-13.924v-16.953h13.908zM53.887 278.301H42.99v6.297h4.246v-3.092h5.56c.641 0 1.01.288 1.01.801v2.964c0 .53-.353.802-1.01.802h-9.774v9.181h4.246v-5.96h6.618c2.484 0 4.198-1.363 4.198-3.35v-4.294c0-1.987-1.714-3.349-4.198-3.349zM247.377 288.829c1.778-.4 2.9-1.603 2.9-3.205v-3.974c0-1.971-1.715-3.349-4.198-3.349H235.23v6.057h4.246v-2.836h5.528c.641 0 1.01.288 1.01.801v2.724c0 .513-.353.801-1.01.801h-9.758v9.438h4.246v-6.297h3.429l3.43 6.281h4.582l-3.557-6.441z"/></g><path d="M105.516 204.446c12.259 13.813 26.151 25.222 41.214 33.555 15.047-8.317 28.923-19.678 41.182-33.426a407.718 407.718 0 00-82.364-.129h-.032z" fill="#1c2b39"/><path d="M251.255 106.796c6.185-26.856 8.236-53.216 6.361-78.053l-.128-.93-.337-.224c-27.85-14.117-66.996-22.946-110.758-22.946s-82.33 8.813-110.197 22.898l-.064 1.218a260.502 260.502 0 006.202 77.989c15.943 69.224 56.564 124.33 104.38 150.337 47.832-26.007 88.597-81.05 104.54-150.289zm-103.692 134.65l-.817.448-.801-.448c-21.04-11.425-40.525-29.34-56.325-51.774-16.344-23.138-28.522-50.812-35.252-80.04a227.872 227.872 0 01-5.449-68.326l.129-1.987.865-.449c25.638-12.963 59.946-20.094 96.593-20.094 36.935 0 71.467 7.147 97.089 20.142l.176.097.946.609.224 1.666c1.667 22.097-.208 45.108-5.576 68.374-6.73 29.212-18.94 56.886-35.317 80.024-15.928 22.386-35.445 40.253-56.485 51.758z" fill="#1c2b39"/><path d="M238.724 87.119c-25.142-9.903-57.158-15.848-92.315-15.848-34.563 0-65.794 5.753-90.663 15.367l-2.035.801c.128.946.272 1.891.416 2.852a243.529 243.529 0 003.494 18.556 237.21 237.21 0 0011.585 36.535c1.474 3.59 3.028 7.13 4.663 10.608a203.568 203.568 0 0031.631 48.456 406.552 406.552 0 0182.364.129 203.553 203.553 0 0031.775-48.553 226.719 226.719 0 004.695-10.624 235.35 235.35 0 0011.602-36.519c1.554-6.762 2.82-13.492 3.765-20.19.048-.369.112-.737.16-1.106l-1.137-.464z" fill="#59cbe8"/><path d="M244.86 41.274l-.207-1.667-.946-.608-.176-.097c-25.638-12.979-60.122-20.142-97.09-20.142-36.646 0-70.954 7.13-96.592 20.094l-.865.449-.113 1.987a228.394 228.394 0 005.449 68.326c6.73 29.228 18.924 56.934 35.252 80.04 15.832 22.45 35.333 40.349 56.325 51.774l.817.448.817-.448c21.04-11.441 40.573-29.34 56.42-51.758 16.345-23.154 28.587-50.828 35.318-80.024 5.384-23.282 7.258-46.277 5.592-68.374zm-4.934 46.133v.176c-.049.369-.113.737-.16 1.106a246.31 246.31 0 01-3.766 20.19 235.35 235.35 0 01-11.602 36.519 211.127 211.127 0 01-4.695 10.624 203.873 203.873 0 01-31.775 48.553c-12.243 13.748-26.12 25.11-41.182 33.426-15.063-8.333-28.955-19.742-41.214-33.555a204.06 204.06 0 01-31.631-48.456 225.761 225.761 0 01-4.663-10.608 234.14 234.14 0 01-11.585-36.567 228.78 228.78 0 01-3.494-18.556c-.144-.945-.288-1.89-.416-2.852 0-.096 0-.208-.032-.304a219.512 219.512 0 01-1.41-45.637v-.064c25.061-12.434 58.455-19.277 94.173-19.277 36.198 0 69.896 6.923 95.022 19.502a218.679 218.679 0 01-1.57 45.78z" fill="#ff8200"/><path d="M241.48 41.643c-25.11-12.58-58.824-19.502-95.022-19.502-35.734 0-69.096 6.843-94.173 19.277v.064a218.416 218.416 0 001.41 45.637c0 .096 0 .208.032.304l2.035-.801c24.837-9.598 56.084-15.367 90.664-15.367 35.124 0 67.156 5.96 92.314 15.848l1.17.464v-.176a217.295 217.295 0 001.57-45.748z" fill="#fff"/><path d="M157.674 131.697c.064-5.896-4.663-10.72-10.56-10.784s-10.72 4.663-10.784 10.56c-.064 5.897 4.663 10.72 10.56 10.784h.096c5.865.048 10.64-4.679 10.688-10.544v-.016z" fill="#ff8200"/><g fill="#1c2b39"><path d="M210.73 116.763l-24.757-.93-6.25 3.51 31.007-1.17zM82.858 118.173l31.568 1.186-6.346-3.541-25.222.945zM177.272 148.218c-8.38.529-8.413.721-13.973-5.512a6.412 6.412 0 01-1.362-3.397 56.763 56.763 0 01-.497-5.961v-.289l2.66-1.778v-3.638l-4.743 2.885c0 .384.224.769.224 1.137.032.385.032.786 0 1.17v.353c-.032.272-.048.544-.112.8 0 .129-.032.257-.064.37-.064.288-.128.56-.224.849a.686.686 0 01-.08.256c-.113.337-.24.673-.37.994-.047.128-.127.256-.175.4-.048.128-.193.4-.289.609-.096.208-.16.305-.24.449-.08.144-.192.32-.305.496-.096.16-.192.305-.288.45s-.208.272-.32.416c-.225.288-.465.577-.706.849l-.24.272c-.16.177-.336.337-.513.497l-.224.192a13.482 13.482 0 01-2.9 1.94l-.145.08c-.256.128-.528.24-.8.352l1.153 20.479 18.283-2.372c10.993-1.218 21.985-2.452 32.978-3.701l15.655-1.811a226.719 226.719 0 004.695-10.624 11940.68 11940.68 0 00-47.078 2.788zm30.493 8.124a3.087 3.087 0 01-1.618-.528c-.24-.16-.48-.321-.69-.513a6.814 6.814 0 01-.496-.465 3.886 3.886 0 01-.93-1.586 4.713 4.713 0 01-.191-.946v-.416a4.033 4.033 0 013.957-3.974h.049c2.163 0 3.925 2.067 3.91 4.246-.017 2.227-1.763 4.07-3.99 4.182zM139.856 142.129l-.08-.048c-.32-.224-.61-.449-.914-.69-.32-.24-.609-.544-.93-.848a12.693 12.693 0 01-3.685-9.134c0-.288.449-.577.481-.865l-5.256-3.173v3.926l3.541 1.939v.128c0 1.987-.512 3.974-.737 5.96a6.63 6.63 0 01-1.49 3.43c-5.56 6.233-5.64 6.057-14.02 5.512a7806.326 7806.326 0 00-47.56-2.852c1.474 3.59 3.028 7.13 4.663 10.608l16.104 1.859a5006.862 5006.862 0 0040.99 4.582h.288l9.646 1.25 1.09-20.366a14.061 14.061 0 01-2.131-1.218zm-50.123 11.906a4.263 4.263 0 01-1.282 1.538c-.641.48-1.41.753-2.212.753-1.073 0-2.067-.737-2.804-1.49a4.142 4.142 0 01-1.138-2.932 4.033 4.033 0 013.958-3.974h.048c2.164 0 3.926 2.067 3.91 4.246a4.351 4.351 0 01-.48 1.89v-.031zM146.986 144.324c-.977 0-1.97-.128-2.932-.352l-1.939 36.134c.529 5.56 2.26 8.316 4.711 11.217 2.468-2.9 4.198-5.288 4.711-10.849l-2.003-36.422c-.817.192-1.682.272-2.548.272zM159.325 128.38l30.285-16.953c3.798-2.932 5.785-5.753 7.003-8.781.208-.497.384-1.01.544-1.538-3.781-.53-7.547-.177-12.546 2.34l-7.996 5.656-19.982 14.149a13.054 13.054 0 012.692 5.127zM104.443 111.443l30.237 16.953a12.708 12.708 0 012.756-5.111l-15.912-11.265-12.114-8.557c-5-2.532-8.765-2.868-12.547-2.34.369 1.17.834 2.308 1.41 3.398a21.66 21.66 0 006.17 6.922zM144.07 119.295a12.67 12.67 0 012.051-.305c.288 0 .609-.032.865-.032h.16a12.703 12.703 0 017.868 2.853l9.567-6.763-5.657-.208-3.942-.144-5.336-9.406-2.035-25.43h-1.25l-2.035 25.43-5.32 9.406-8.3.304-1.346.048 9.582 6.779a12.733 12.733 0 015.128-2.532z"/><path d="M86.24 149.115a2.807 2.807 0 00-.304 5.592h.303a2.842 2.842 0 002.82-2.803v-.257c-.16-1.458-1.377-2.548-2.82-2.532zM207.765 149.115a2.814 2.814 0 00-2.724 2.1c-.048.176-.08.368-.096.544v.177a2.809 2.809 0 002.5 2.788h.56c1.539-.096 2.725-1.426 2.629-2.965a2.79 2.79 0 00-2.869-2.644zM81.384 64.861a230.476 230.476 0 00-13.476 3.83V42.316a246.27 246.27 0 00-6.378 2.083v32.528c6.538-2.21 13.156-4.246 19.854-5.912V64.86zM91.19 68.883c4.36-.945 6.539-1.362 10.897-2.115a7.497 7.497 0 006.474-7.435V39.271c0-3.798-2.644-6.057-6.474-5.384-4.39.753-6.57 1.17-10.896 2.115a7.999 7.999 0 00-6.394 7.868v20.062c-.032 3.798 2.612 5.769 6.394 4.951zm.097-25.237c-.048-.93.609-1.747 1.538-1.86 3.029-.64 4.583-.929 7.66-1.49.993-.176 1.538.273 1.538 1.266v17.53c.064.93-.625 1.731-1.538 1.811-3.077.545-4.6.85-7.66 1.49-.993.209-1.538-.224-1.538-1.217v-17.53zM121.204 41.835c4.086 7.082 8.14 14.165 12.162 21.28 2.852-.145 4.278-.193 7.115-.273V30.314c-2.484.064-3.718.096-6.202.224v22.177a5616.23 5616.23 0 00-12.162-21.328c-2.836.273-4.246.417-7.099.77v32.528c2.468-.304 3.702-.433 6.186-.673V41.835zM171.503 57.506V37.813c.096-3.702-2.804-6.81-6.506-6.939-5.736-.4-11.489-.609-17.241-.609v32.53c5.752 0 11.489.208 17.241.608 3.862.257 6.506-2.099 6.506-5.897zm-8.156-.352a208.12 208.12 0 00-8.958-.4V36.498c3.59.096 5.385.176 8.958.4a1.514 1.514 0 011.57 1.427v17.386c.096.705-.4 1.362-1.121 1.458a1.39 1.39 0 01-.45-.016zM183.681 65.534c4.407.61 6.602.978 10.977 1.779 3.813.705 6.441-1.362 6.441-5.144V42.107a7.706 7.706 0 00-6.441-7.675c-4.375-.801-6.57-1.154-10.977-1.779-3.83-.545-6.49 1.81-6.49 5.576v20.062c0 3.798 2.66 6.698 6.49 7.243zm1.619-26.503c3.076.448 4.615.705 7.691 1.25.93.08 1.603.897 1.539 1.81v17.53c0 .994-.545 1.443-1.539 1.266a213.302 213.302 0 00-7.691-1.25 1.648 1.648 0 01-1.555-1.73V40.345a1.232 1.232 0 011.042-1.362c.176-.016.352 0 .513.048zM213.518 49.126c3.99 8.492 7.932 17.017 11.826 25.558 2.756.85 4.118 1.298 6.858 2.227V44.383c-2.388-.818-3.573-1.218-5.977-1.955v22.177a3075.681 3075.681 0 00-11.81-25.606 170.2 170.2 0 00-6.97-1.731v32.529c2.42.577 3.637.865 6.057 1.506.016-7.387.016-14.774.016-22.177z"/></g></svg>