<svg xmlns="http://www.w3.org/2000/svg" viewBox="0 0 225 186.6"><g fill="#fff"><path d="M27.943 146.684h1.236v4.146h1.731v.97h-2.967zM45.953 151.097c.495 0 .533-.438.533-1.883 0-1.407-.057-1.883-.533-1.883-.494 0-.532.438-.532 1.883s.038 1.883.532 1.883m0 .817c-1.616 0-1.825-1.027-1.825-2.7 0-1.617.209-2.7 1.825-2.7 1.73 0 1.826 1.235 1.826 2.7-.057 1.464-.114 2.7-1.826 2.7M62.328 150.24v.172c0 .38.114.704.532.704s.533-.324.533-.59c0-1.141-2.206-.494-2.206-2.434 0-.818.437-1.503 1.673-1.503 1.18 0 1.617.59 1.617 1.408v.114h-1.18c0-.266-.056-.438-.113-.533-.058-.114-.172-.17-.38-.17-.324 0-.495.17-.495.532 0 1.084 2.206.532 2.206 2.377 0 1.179-.647 1.616-1.788 1.616-.856 0-1.673-.266-1.673-1.35v-.323h1.274zM94.677 147.597l-.437 2.263h.856l-.419-2.263zm-.703-.913h1.502l1.293 5.116h-1.236l-.171-.97h-1.217l-.171.97h-1.236l1.236-5.116zM111.185 148.244v3.556h-1.084v-5.116h1.407l1.008 3.348v-3.348h1.141v5.116h-1.407l-1.027-3.556zM129.5 148.244c0-.323-.058-.856-.495-.856-.495 0-.533.495-.533 1.883 0 1.407.057 1.826.533 1.826.437 0 .532-.38.532-1.084v-.172h-.59v-.817h1.674v2.757h-.817l-.057-.494c-.172.494-.647.59-1.142.59-1.293 0-1.502-.97-1.502-2.587 0-1.674.114-2.796 1.826-2.796 1.56 0 1.616 1.084 1.616 1.674h-1.084v.076zM145.512 150.83h1.845v.97h-3.024v-5.116h2.967v.97h-1.788v1.027h1.674v.97h-1.674zM162.115 150.83h1.73v.97h-2.966v-5.116h1.236zM178.395 150.83h1.844v.97h-3.08v-5.116h3.023v.97h-1.787v1.027h1.673v.97h-1.673zM194.731 150.24v.172c0 .38.114.704.533.704.437 0 .532-.324.532-.59 0-1.141-2.206-.494-2.206-2.434 0-.818.437-1.503 1.674-1.503 1.179 0 1.616.59 1.616 1.408v.114h-1.179c0-.266-.057-.438-.114-.533-.057-.114-.171-.17-.38-.17-.324 0-.495.17-.495.532 0 1.084 2.206.532 2.206 2.377 0 1.179-.647 1.616-1.788 1.616-.855 0-1.673-.266-1.673-1.35v-.323h1.274z"/></g><path fill="#ffd100" d="M86.747 102.753l2.11 3.442 14.074 20.483.438.494 5.439 3.442.76.438-2.643-6.733-17.42-43.627-.704-5.23h.266l16.888 3.556.533.875.38 5.116 3.994 10.84 1.616 4.85 1.617-4.85 3.974-10.84.438-5.116.532-.875 16.888-3.556h.267l-.761 5.23-17.364 43.627-2.624 6.733.742-.438 5.458-3.442.418-.494 14.074-20.483 2.11-3.442 1.94-7.341 1.294-1.826 7.322-4.526.703-.552 7.607-11.467-8.9.741.323-.38 12.134-9.7 1.179-1.178 4.05-13.218-9.375 2.377.475-.646 11.43-11.696 2.53-3.67 10.63-35.032-8.196 13.141-37.047 34.138-23.868-13.009-23.772 12.952-37.104-34.08-8.197-13.142 10.63 35.031 2.473 3.67 11.487 11.697.495.646-9.452-2.377 4.107 13.218 1.18 1.179L76.4 77.402l.38.38-8.9-.741 7.607 11.467.704.552 7.322 4.526 1.293 1.826z"/><g fill="#ffd100"><path d="M90.417 181.887v-3.88H79.805v-19.95h-4.108v23.83zM107.191 158.114h3.994v23.507h-3.994zM211.619 181.887V161.88h7.76v-3.823H199.96v3.823h7.76v20.007zM54.568 159.198c-.323-.703-.59-1.14-1.56-1.14H50.48c-.97 0-1.237.437-1.56 1.14-2.32 5.268-9.167 20.426-10.194 22.689h3.5c.913 0 1.236-.171 1.616-1.027 2.53-5.706 7.93-18.067 7.93-18.067l7.931 18.105c.38.818.647 1.027 1.617 1.027h3.5c-1.085-2.301-7.931-17.459-10.252-22.727M138.894 159.198c-.323-.703-.59-1.14-1.56-1.14h-2.529c-.97 0-1.236.437-1.56 1.14-2.32 5.287-9.166 20.426-10.193 22.689h3.5c.912 0 1.236-.171 1.616-1.027 2.586-5.763 7.93-18.105 7.93-18.105l7.931 18.105c.38.818.647 1.027 1.617 1.027h3.499c-1.103-2.263-7.893-17.42-10.25-22.689M26.593 159.027c-2.587 5.763-7.93 18.067-7.93 18.067s-5.383-12.285-7.931-18.067c-.38-.818-.704-1.027-1.617-1.027H5.616c1.027 2.32 7.874 17.459 10.194 22.689.323.703.59 1.14 1.56 1.14h2.529c.97 0 1.236-.437 1.559-1.14 2.32-5.287 9.167-20.426 10.194-22.689h-3.5c-.855.057-1.179.228-1.56 1.027M181.475 175.307l-11.543-16.774c-.324-.438-.704-.495-.704-.495h-4.85v23.887h4.146v-18.657l12.932 18.657h4.051v-23.81h-3.993v17.192h-.039z"/></g></svg>