<svg xmlns="http://www.w3.org/2000/svg" viewBox="0 0 210.8 225"><g fill="#0f57ea"><path d="M5.3 111.2l20.8-20.8L5.3 69.6z"/><path d="M5.3 35.8v11.1l43.5 43.5L5.3 134v11h11.5l54.6-54.6-54.6-54.6z"/><path d="M62.1 145l43.3-43.3 43.3 43.3h22.5l-54.5-54.6 54.5-54.6h-22.5l-43.3 43.3-43.3-43.3H39.5l54.6 54.6L39.5 145zM184.7 90.4l20.8 20.8V69.6z"/><path d="M194 35.8l-54.6 54.6L194 145h11.5v-11l-43.6-43.6 43.6-43.5V35.8zM105.4 56.4L126 35.8H84.8zM105.4 124.4L84.8 145H126z"/></g><g fill="#ff1c26"><path d="M48.4 24.3h-3.7l-2-9.1v9.1h-3.4V5.8H43l2 9.5V5.8h3.4v18.5zM63.2 24.3H57V5.8h6.2v3h-2.3v3.8h2.3v3h-2.3v5.7h2.3v3zM86.5 5.8l-2.3 18.5H80l-.9-11.1-.9 11.1H74L71.6 5.8h3.7l.9 11.7 1.1-11.7h3.6L82 17.5l.9-11.7h3.6zM118.5 5.8L115.9 17v7.3h-4.2V17l-2.6-11.2h3.7l1 7.1 1-7.1h3.7zM135.7 20.8c0 1.5-.3 2.5-.8 2.9-.5.5-1.8.7-3.7.7s-3.2-.2-3.7-.7c-.5-.4-.8-1.4-.8-2.9V9.2c0-1.5.3-2.5.8-2.9.5-.4 1.8-.7 3.7-.7 1.9 0 3.2.2 3.7.7.5.4.8 1.4.8 2.9v11.6zm-3.9 0V9.3c0-.4-.2-.6-.6-.6s-.6.2-.6.6v11.5c0 .4.2.6.6.6s.6-.2.6-.6zM153.3 24.3h-3.9v-6.6c0-.5-.2-.8-.6-.8h-.5v7.4h-3.9V5.8h4.8c1.7 0 2.8.2 3.3.6.6.5.9 1.4.9 2.9v3.2c0 1.6-.6 2.5-1.8 2.7 1.2.3 1.8 1.3 1.8 2.8l-.1 6.3zm-4-11.4V9.5c0-.5-.2-.8-.6-.8h-.5v4.7h.5c.4.1.6-.1.6-.5zM171.4 24.3h-3.9l-1.9-8.9v8.9h-3.7V5.8h3.7v7.5l1.5-7.5h3.9l-2 8.3 2.4 10.2z"/></g><g fill="#fff"><path d="M120.3 165.5c0-2.3 1.9-4.1 4.1-4.1h13.3c2.3 0 4.1 1.9 4.1 4.1v15h-9.1v-10.1c0-.5-.4-.8-.8-.8h-1.7c-.5 0-.8.4-.8.8v8.1c0 .8-.1 1.1.4 1.8l10.8 13.9c.6.8 1.2 1.7 1.2 3.3v17.6c0 2.3-1.9 4.1-4.1 4.1h-13.3c-2.3 0-4.1-1.9-4.1-4.1v-16.6h9.1v11.6c0 .5.4.8.8.8h1.7c.5 0 .8-.4.8-.8v-10.2c0-.5-.2-1-.5-1.5 0 0-10.2-13.3-11-14.2-.8-1.1-1-1.5-1-2.6l.1-16.1zM64.3 182.1v-11.6c0-.5-.4-.8-.8-.8h-1.7c-.5 0-.8.4-.8.8v39.8c0 .5.4.8.8.8h1.7c.5 0 .8-.4.8-.8v-11.6h9.1v16.6c0 2.3-1.9 4.1-4.1 4.1H56c-2.3 0-4.1-1.9-4.1-4.1v-49.8c0-2.3 1.9-4.1 4.1-4.1h13.3c2.3 0 4.1 1.9 4.1 4.1v16.6h-9.1zM85.6 192.8v18.3h10v8.3H76.5v-58.1h19.1v8.3h-10v14.9h8.3v8.3zM14.4 192.8v18.3h10v8.3H5.3v-58.1h19.1v8.3h-10v14.9h8.3v8.3zM170.8 170.4c0-.4-.4-.8-.8-.8h-1.7c-.4 0-.8.4-.8.8v39.8c0 .4.4.8.8.8h1.7c.4 0 .8-.4.8-.8v-39.8zm5-9.1c2.5 0 4.1 1.7 4.1 4.1v49.8c0 2.5-1.7 4.1-4.1 4.1h-13.3c-2.5 0-4.1-1.7-4.1-4.1v-49.8c0-2.5 1.7-4.1 4.1-4.1h13.3zM145.4 161.3h9.1v58h-9.1zM196.2 170.4c0-.5-.4-.8-.8-.8h-2.5v15.8h2.5c.5 0 .8-.4.8-.8v-14.2zm9.1 23.3v25.7h-9.1v-24.9c0-.5-.4-.8-.8-.8h-2.5v25.7h-9.1v-58h17.4c2.3 0 4.1 1.9 4.1 4.1V185c0 2.5-1.7 4.1-4.1 4.1v.4c2.5 0 4.1 1.7 4.1 4.2M102.9 219.4l4.9-9.6v-48.5h-9.1v58.1zM117.8 219.4v-8.3h-9.4l-4.2 8.3z"/><g><path d="M39.7 176.5v-15.1h9.1v17.2c0 .2-.1.5-.2.7l-12.3 23.3v16.8h-9.1v-18.2c0-.2.1-.5.2-.7l12.3-24z"/><path d="M43.8 191.1l-5.1 9.7.9 1.7v16.8h9.1v-18.2c0-.2-.1-.5-.2-.7l-4.7-9.3zM32.1 188.3l5.1-10-.9-1.8v-15.1h-9.1v17.2c0 .2.1.5.2.7l4.7 9z"/></g></g></svg>