<svg xmlns="http://www.w3.org/2000/svg" viewBox="0 0 225 228"><g fill="#ffaa1d"><path d="M31.1 200.6l-.8-6.2H5.6v18.8c0 4.9 4 8.9 8.9 9h15.8l.8-6.2H15.7c-1.5 0-2.8-1.2-2.8-2.8V211h16.4v-5.6H12.8v-4.8h18.3zM52.8 200.6h10.1l1-6.2H34.8v6.2h11.1v21.5h6.9zM179.1 194.4h-7v.1l-12.8 27.8h6.9l2.6-5.7h13.5l2.6 5.7h6.9l-12.7-27.9zm.8 17h-8.7l4.3-9.4 4.4 9.4zM124.6 204.8c0-5.6-4.5-10.4-10-10.4H96.9v6.2h16.2c2.3-.1 4.3 1.7 4.3 4v.1c0 2.4-1.9 4.3-4.3 4.3h-9.3v-3.7h-6.9v16.8h6.9V215l8.2-.1 4.4 7.3h8.3l-5.2-8.7c3.1-1.8 5.1-5.1 5.1-8.7zM148.7 211l-13.4-16.6h-6.9v27.7h6.9v-16.3l13.4 16.3h6.9v-27.7h-6.9zM195.4 194.4v27.9h24V216h-17v-21.6zM93.2 200.6l-.8-6.2H67.6v19.2c.2 4.8 4.2 8.6 9 8.6h15.8l.8-6.2H77.7c-1.5 0-2.8-1.2-2.8-2.8V211h16.4v-5.6H74.9v-4.8h18.3z"/></g><g fill="#fff"><path d="M53.3 183.7v4.4h-1.7v-10.9h1.9c.7 0 1.4 0 2.1.2.5.1.9.4 1.3.7.6.6 1 1.5.9 2.3 0 .9-.3 1.8-1 2.4-.8.6-1.7.9-2.7.9h-.8zm0-1.5h.6c1.5 0 2.3-.6 2.3-1.8 0-1.2-.8-1.7-2.3-1.7h-.5l-.1 3.5zM87.8 185.5h-4.7l-1.2 2.7h-1.8l5.4-11.1 5.2 11.1h-1.8l-1.1-2.7zm-.7-1.6l-1.6-3.7-1.7 3.7h3.3zM116.8 183.5l3.4 4.7h-2l-3.1-4.5h-.3v4.5h-1.7v-10.9h1.9c1.4 0 2.5.3 3.2.8.7.6 1.1 1.5 1.1 2.4 0 .7-.2 1.4-.7 2-.5.5-1.1.9-1.8 1zm-2.1-1.3h.5c1.6 0 2.3-.6 2.3-1.8 0-1.1-.8-1.7-2.3-1.7h-.6v3.5zM144.1 177.2v10.9h-1.7v-10.9h1.7zM172.8 178.8l-1.4.8c-.2-.3-.4-.6-.7-.8-.3-.2-.6-.2-.9-.2-.4 0-.8.1-1.1.4-.3.2-.5.6-.5 1 0 .5.4 1 1.2 1.3l1.1.5c.8.3 1.4.7 1.9 1.3.4.5.6 1.2.6 1.9 0 .9-.3 1.8-1 2.5s-1.6 1-2.5 1c-.9 0-1.7-.3-2.4-.8-.6-.6-1.1-1.5-1.1-2.4l1.7-.4c0 .5.2.9.4 1.4.6.8 1.8.9 2.6.3l.1-.1c.3-.3.5-.8.5-1.3 0-.2 0-.4-.1-.6-.1-.2-.2-.3-.3-.5-.1-.2-.3-.3-.5-.4-.2-.1-.5-.3-.7-.4l-1.1-.5c-1.5-.6-2.3-1.6-2.3-2.8 0-.8.3-1.6.9-2.1.6-.6 1.5-.9 2.3-.8 1.6-.1 2.6.5 3.3 1.7z"/></g><g fill="#8d042d"><path d="M125.3 91.5c4.6 11.8 17.8 17.6 29.6 13.1C166.7 100 172.5 86.7 168 75c-2.1-5.5-6.3-10-11.7-12.5 10.1 6.6 12.9 20.2 6.3 30.2s-20.2 12.9-30.2 6.3c-3-1.9-5.4-4.5-7.1-7.5z"/><path d="M144.7 94.7c-5.3.8-10.7-.8-14.7-4.4 6 7.9 17.3 9.4 25.1 3.4s9.4-17.3 3.4-25.1c-.5-.7-1.1-1.3-1.6-1.9 5.6 8.2 3.6 19.4-4.6 25.1-2.2 1.5-4.9 2.5-7.6 2.9z"/><path d="M175.4 65c-8-12.2-25.8-16.7-31.5-18.5-5.8-1.7-8.6-3.8-10.3-6.8-1.8-3-1-7.8 1.8-11.6-3.9 2.8-5.6 5.2-6.5 7.5v.1c-.3.7-.4 1.5-.5 2.3-.6 4.4.2 8.9 2.3 12.8 3.4 6.3 10.7 10.6 15.5 13.6 4.8 3 7.6 9.4 5.1 14.9-2.4 5.5-8.7 7.9-14.2 7.3-5.5-.6-14.3-6.6-16.8-10.3 0 0 7.3 13.3 19.4 13.3 9.8 0 16.3-6 16.3-14.2s-3.2-11.8-13.5-17.8c-3.2-1.7-5.9-4.2-7.9-7.1 3.1 2.2 6.5 3.9 10.1 5 16.3 4.1 23.8 13.1 26.2 18.2 2.4 5.2 5 16.7-5 28.5-14.7 15.5-32.4 6.7-38.3 1.2-5-4.6-10.3-14.6-14-25.6-.5-1.8-11.5-30.4-37.4-28-25.9 2.4-33.1 23.1-32.6 34.6 1.3 28.3 25.4 33.7 34.1 33.3 7-.4 11.5-3.2 11.5-3.2s-2.7.5-4.4.3c-7.9-.7-14-8.3-14-15.3 0-8.6 7-15.6 15.6-15.6 4.2 0 8.3 1.7 11.2 4.8-5.9-7.7-16.8-9.1-24.5-3.2-7.7 5.9-9.1 16.8-3.2 24.5 1.2 1.6 2.7 3 4.4 4.1-16.7-4.2-22.6-14.8-24-26.1-1.2-9.9 5.9-27.7 24.9-29.8 17.9-2 27.7 15.3 30.1 21.2 0 0 6.1 15.9 9.8 37.5 3.7 21.5 6.6 49.6 6.6 49.6l8.9-35s-7.9-6-10-21c10.8 18 37.5 14.7 49.8 1.5 13.7-14.8 13.1-34.8 5-47z"/><path d="M77.9 61.9C64.7 61.9 54 72.6 54 85.8c0 4.1 1 8.1 3 11.7-3.3-13.2 4.7-26.6 17.9-29.9 8.7-2.2 17.9.5 24 7-4.2-7.8-12.2-12.7-21-12.7z"/><path d="M82.9 75.4c5.5 0 10.8 2.3 14.6 6.3-5-9.4-16.7-13-26.2-8s-13 16.7-8 26.2c.1.1.2.3.2.4C60.8 89.6 67.3 78.7 78 76c1.6-.4 3.3-.6 4.9-.6zM153 25.7c9 0 7.6 3.2 7.6 3.2 2.9-.5 4.8-1.6 4.4-4.1-.4-2.2-2.5-3.3-4.9-3.2-.3-2 2.5-4.4 2.5-4.4s-3.9-1.5-7 1.3c-.5-2.4.5-4.8 1.7-5.8-1.4-1.2-5.1-.8-7.3 2.3-1.6-2.1-1.3-4.7.7-6.9-2.8-.5-7.4 2-8.5 5.6-1.7-1.8-2.7-5.5-1-8.1-3.7 2-7.2 4.8-7.2 11.1 0 9.1 11.3 9.1 19 9zM160.3 32.6s-3.3 0-3.5 5.4c-.2 5.7 1.9 10 6.6 9.6 4.4-.3 5.1-5.5 2.3-8.2-2.4-2.3-5.6-3-5.9-4.7-.2-1.6.5-2.1.5-2.1z"/></g></svg>