<svg xmlns="http://www.w3.org/2000/svg" viewBox="0 0 300 240.9"><path d="M49.675 163.993v2.02h.45c.448 0 .673 0 .897-.224.225-.224.225-.449.225-.673 0-.45-.225-.674-.45-.898-.224 0-.448-.225-.897-.225h-.225zm-1.571-1.347h2.02c.674 0 1.347.225 1.796.45l.674.673c.224.449.224.673.224 1.122 0 .45-.224 1.123-.449 1.347-.224.225-.449.45-.898.674-.224.224-.673.224-1.347.224h-.673v2.694h-1.572l.225-7.184zM73.92 162.646v7.184h-1.571v-3.143H69.43v3.143H67.86v-7.184h1.571v2.919h2.919v-2.919h1.571zM90.981 169.83H89.41v-7.184h1.571v7.184zM107.818 162.646v5.837h2.245v1.347h-3.817v-7.184h1.572zM128.246 164.667l-.898 2.694h1.796l-.898-2.694zm.674-2.02l2.918 7.183h-1.572l-.673-1.571h-2.918L126 169.83h-1.571l2.918-7.184h1.572zM148.001 163.993v4.715h1.796c.224 0 .449-.225.673-.45.225-.224.45-.448.45-.673.224-.449.224-.673.224-1.122 0-.674-.225-1.123-.45-1.347l-.673-.674c-.225-.224-.673-.224-1.347-.224h-.673zm-1.347-1.347h2.02c.898 0 1.572 0 1.796.225.898.224 1.347.673 1.796 1.571.225.45.45 1.123.45 2.02 0 1.123-.45 2.246-1.123 2.695-.45.224-.674.449-1.123.673s-.898.225-1.796.225h-2.244l.224-7.409zM171.797 162.646v1.347h-2.47v1.572h2.47v1.347h-2.47v1.796h2.47v1.347h-4.041v-7.184l4.04-.225zM188.633 162.646v5.837h2.245v1.347h-3.816v-7.184h1.571zM207.49 163.993v2.02h.45c.448 0 .673 0 .897-.224.225-.224.225-.449.225-.673 0-.45-.225-.674-.45-.898-.224 0-.448-.225-.897-.225h-.225zm-1.571-1.347h2.02c.674 0 1.347.225 1.796.45l.674.673c.224.449.224.673.224 1.122 0 .45-.224 1.123-.449 1.347-.224.225-.449.45-.898.674-.224.224-.673.224-1.347.224h-.673v2.694h-1.572l.225-7.184zM231.735 162.646v7.184h-1.572v-3.143h-2.918v3.143h-1.571v-7.184h1.571v2.919h2.918v-2.919h1.572zM248.796 169.83h-1.571v-7.184h1.57v7.184zM267.204 164.667l-.898 2.694h1.796l-.898-2.694zm.673-2.02l2.919 7.183h-1.572l-.673-1.571h-2.918l-.674 1.571h-1.571l2.918-7.184h1.571z" fill="#f99e29"/><path d="M152.715 62.75h32.102c.898 0 4.49.448 4.265 4.265v4.04l-5.612 5.613H152.715V62.749zm45.122-17.062h-64.203v31.204H106.92l26.49 17.061.224 32.775 18.857-17.51V93.953h37.714l16.163-16.163V53.77c.224.224 1.122-8.306-8.53-8.082" fill="#fff"/><path d="M129.593 55.79c-5.163-12.796-6.286-23.57-2.245-29.857-5.163-.449-10.775 2.02-10.775 2.02 15.04-13.02 32.775-6.06 32.775-6.06 9.653 2.918 20.877 9.877 32.326 19.53h7.857c-26.04-25.816-54.326-40.408-68.469-33.673-14.142 6.51-9.877 32.102 8.755 61.285V55.79zM236.45 122.014c0-1.122-.225-2.47-.45-4.49h-.224c-.898-5.387-2.694-11.448-5.388-17.959-2.47-5.612-5.612-12.122-10.326-19.755 1.122-1.346 2.02-2.693 2.918-3.816 2.245-3.143 5.163-7.632 7.408-13.02 3.143-7.857 2.694-14.143-1.571-18.184-5.164-4.714-15.266-5.612-27.837-3.142 2.02.224 3.367.898 4.714 1.571 9.429-1.796 19.082-1.122 22.674 4.49 6.285 9.204-9.878 29.408-9.878 29.408-.224-.45-.673-.898-.898-1.347l-1.347-2.02c-1.796-2.47-3.592-5.164-5.163-7.409v6.061c3.143 4.49 5.163 7.408 5.163 7.633-3.367 4.265-8.306 8.98-12.796 13.245a151.156 151.156 0 01-8.755 7.408c-2.469 2.02-4.265 3.367-4.265 3.367-2.245 1.572-4.49 3.367-6.734 4.939-.898.673-2.02 1.347-2.919 2.02-1.122-1.347-2.918-2.245-4.714-2.47-4.714-.897-9.429 2.246-10.327 6.96-.224 1.571-.224 3.143.225 4.49-27.612 15.265-53.653 21.326-63.755 13.918l-.224 1.347c-.898 4.49.898 9.653.898 9.653-6.286-8.98-5.612-18.408-4.265-24.02 2.02-8.53 9.653-19.53 21.326-30.755l-4.49-2.918c-26.938 23.122-39.959 46.469-29.408 56.122 11.45 10.55 46.918 1.795 82.612-19.98 1.122.898 2.47 1.572 3.816 1.796 4.714.898 9.429-2.245 10.327-6.96.224-1.346.224-2.693-.225-4.04 4.265-2.918 8.082-5.837 11.898-8.98.898-.897 2.02-1.57 2.918-2.469 11.225-9.428 18.408-17.51 20.204-19.53l.45-.45c4.489 7.184 7.632 13.246 9.877 18.633 2.244 5.612 3.816 10.776 4.49 15.49.224 1.571.448 3.143.448 4.265v2.47c0 2.02-.449 2.918-.449 2.918-.898 4.49-3.142 7.857-6.959 9.653-6.285 2.918-15.714 1.122-26.714-4.265 0 0-5.612-2.694-16.836-8.98 0 0 3.142 4.04 13.918 10.776 13.02 6.959 24.693 9.428 32.102 5.836 5.387-2.47 8.081-7.857 8.306-15.04v-.225c0-.449 0-1.347.224-2.245-.224 0-.224 0 0 0" fill="#f99e29"/><g fill="#fff"><path d="M71.45 188.238c1.797 0 1.797 0 3.143-1.122l10.551-10.551c.225-.225.45-.225.225-.45h-59.04v22.45H7.472c0 .448 1.122 1.122 1.122 1.122L26.33 210.91v24.02c.224 0 .673-.448.673-.448L38.9 222.585c.673-.674.673-.898.673-1.572v-9.877h17.735c1.122 0 1.347 0 2.245-.898l10.775-10.776c.225-.224.45-.449.225-.673H39.349v-10.55H71.45zM280.673 175.891v26.49l-24.693-26.49h-12.347v45.122h12.347v-26.265c8.081 8.755 16.612 17.735 24.693 26.265h11.898v-45.122h-11.898z"/><path d="M123.307 207.993v-32.102h-12.571v26.714c0 .45-.224.898-.449 1.347l-4.49 4.49H87.39h-.224l-.225-.225v-27.836c0-.449 0-.449-.449-.449l-12.347 12.347v28.51h35.919c.673 0 1.346 0 1.795-.674l10.327-10.326c.898-.674 1.122-.898 1.122-1.796M226.347 188.463c.225.224.225 11 .225 15.265l-4.715 4.938h-18.183l-.45-.224v-1.347-12.571l5.838-5.837 17.285-.224zm-22.673-11.898l-12.347 12.571c-.449.449-.673 1.122-.673 1.796v29.857h35.918c.673 0 1.347 0 1.796-.674l10.326-10.326c.449-.45.673-1.123.673-1.796v-32.326H205.47c-.674.224-1.347.224-1.796.898M171.572 190.258c-.224.225-.224.45-.224.45v30.08h15.04v-45.121h-.449l-14.367 14.591z"/><path d="M167.531 176.116s0-.225-.224-.225H126.45v12.796s13.02 11.449 15.714 13.694c2.694 2.245 5.388 4.49 7.857 6.734v.225h-21.775l-11 11c-.224.224-.224.449-.224.449h50.51v-12.123c0-.673-.225-1.122-.674-1.571l-21.55-18.857c-.225-.224-.674-.449-.45-.898h22.224s.225 0 .45-.224c.224-.225 0-.225 0-.45v-10.55"/></g></svg>