<svg xmlns="http://www.w3.org/2000/svg" viewBox="0 0 225 88.9"><g fill="#fff"><path d="M23.06 6.859v.17c0 .494.171.816.703.816.322 0 .645-.208.645-.645 0-.493-.266-.645-.968-.91-.967-.323-1.404-.702-1.404-1.613 0-1.024.645-1.555 1.613-1.555.967 0 1.612.436 1.612 1.404v.17h-1.024c0-.493-.17-.815-.588-.815-.493 0-.588.322-.588.588 0 .322.114.531.53.702l.817.38c.815.322 1.024.758 1.024 1.403 0 1.138-.702 1.612-1.821 1.612-1.176 0-1.67-.531-1.67-1.555v-.209h1.139l-.02.057zM38.008 4.127L38.54 6.5h-1.024l.493-2.372zm-.645-.93L35.96 8.472h1.138l.265-1.138h1.404l.266 1.138h1.08L38.71 3.198h-1.347zM53.108 8.471h1.176V3.198h-.968v3.604l-1.29-3.604h-1.233V8.47h.968v-3.66zM80.423 3.198h-2.902V8.47h1.024V6.214h1.764V5.36h-1.764V4.07h1.878zM92.317 5.512h.436c.493 0 .816-.209.816-.816 0-.493-.266-.758-.76-.758h-.492v1.574zm-1.082-2.314h1.992c.854 0 1.404.493 1.404 1.347 0 .702-.266 1.176-.854 1.29.702.113.854.493.854 1.612 0 .531.057.854.208.967v.057h-1.138c-.113-.17-.113-.322-.113-.53l-.057-1.025c0-.436-.21-.645-.645-.645h-.588v2.2h-1.082l.02-5.273zM107.359 4.127l.531 2.372h-1.024l.493-2.372zm-.645-.93l-1.404 5.274h1.138l.266-1.138h1.404l.265 1.138h1.138l-1.403-5.273h-1.404zM122.42 8.471h1.233V3.198h-.967v3.604l-1.29-3.604h-1.233V8.47h.967v-3.66zM136.989 4.981c0-.759-.171-1.081-.645-1.081-.532 0-.645.53-.645 2.048 0 1.613.208 1.878.702 1.878.379 0 .644-.208.644-1.346h1.082c0 1.138-.266 2.105-1.67 2.105-1.612 0-1.783-1.138-1.783-2.75s.209-2.75 1.783-2.75c1.499 0 1.613 1.137 1.613 1.877l-1.081.019zM149.09 3.198h1.082V8.47h-1.081zM162.16 6.859v.17c0 .494.171.816.702.816.323 0 .645-.208.645-.645 0-.493-.265-.645-.967-.91-.968-.323-1.404-.702-1.404-1.613 0-1.024.645-1.555 1.612-1.555.968 0 1.613.436 1.613 1.404v.17h-1.024c0-.493-.171-.815-.589-.815-.493 0-.588.322-.588.588 0 .322.114.531.532.702l.815.38c.816.322 1.025.758 1.025 1.403 0 1.138-.702 1.612-1.821 1.612-1.177 0-1.67-.531-1.67-1.555v-.209h1.138v.057zM177.753 4.981c0-.759-.17-1.081-.645-1.081-.531 0-.645.53-.645 2.048 0 1.613.209 1.878.702 1.878.38 0 .645-.208.645-1.346h1.081c0 1.138-.265 2.105-1.67 2.105-1.612 0-1.782-1.138-1.782-2.75s.208-2.75 1.783-2.75c1.498 0 1.612 1.137 1.612 1.877l-1.081.019zM191.468 7.826c.644 0 .758-.53.758-1.935 0-1.403-.114-1.934-.758-1.934-.645 0-.76.53-.76 1.934s.115 1.935.76 1.935m0-4.723c1.612 0 1.783 1.138 1.783 2.75 0 1.613-.209 2.751-1.783 2.751-1.613 0-1.784-1.138-1.784-2.75s.171-2.75 1.784-2.75"/></g><g fill="#fc4c02"><path d="M42 75.4l.8-2.9v-7.8l-.8-3-.7 3v7.8zM38.4 74.1l.8-2.4V65.4l-.8-2.4-.7 2.4V71.7zM45.9 77.2l.8-5.1V65l-.8-5.2-.7 5.2v7.1zM50 77.8l.8-4.6v-9.3l-.8-4.6-.8 4.6v9.3zM53.9 78.8l.8-4.3V62.6l-.8-4.3-.8 4.3v11.9zM57.7 80l.8-4.3V61.4l-.8-4.3-.7 4.3v14.3zM61.6 85.8l.8-5.1V56.4l-.8-5.1-.7 5.1V80.7zM85.3 75.4l.8-2.9v-7.8l-.8-3-.8 3v7.8zM88.9 74.1l.8-2.4V65.4l-.8-2.4-.8 2.4V71.7zM81.4 77.2l.8-5.1V65l-.8-5.2-.8 5.2v7.1zM77.3 77.8l.8-4.6v-9.3l-.8-4.6-.7 4.6v9.3zM73.4 78.8l.8-4.3V62.6l-.8-4.3-.7 4.3v11.9zM69.6 80l.8-4.3V61.4l-.8-4.3-.8 4.3v14.3zM65.7 85.8l.8-5.1V56.4l-.8-5.1-.8 5.1V80.7zM92.5 73.2l.8-2V65.9l-.8-2-.8 2V71.2zM96.3 74.4l.8-3.4v-4.9l-.8-3.4-.7 3.4V71zM100.5 74.8l.7-3.1V65.4l-.7-3.1-.8 3.1V71.7zM104.4 75.5l.7-2.9v-8.1l-.7-2.9-.9 2.9v8.1zM108.2 76.3l.8-2.9v-9.7l-.8-2.9-.8 2.9v9.7zM112.1 80.2l.7-3.4V60.3l-.7-3.4-.8 3.4v16.5zM135.8 73.2l.7-2V65.9l-.7-2-.8 2V71.2zM131.9 74.4l.8-3.4v-4.9l-.8-3.4-.8 3.4V71zM127.8 74.8l.7-3.1V65.4l-.7-3.1-.8 3.1V71.7zM123.9 75.5l.8-2.9v-8.1l-.8-2.9-.8 2.9v8.1zM120.1 76.3l.7-2.9v-9.7l-.7-2.9-.8 2.9v9.7zM116.2 80.2l.7-3.4V60.3l-.7-3.4-.8 3.4v16.5zM139.9 71.7l.7-1.4v-3.5l-.7-1.4-.8 1.4v3.5zM143.7 72.5l.8-2.3v-3.3l-.8-2.3-.7 2.3v3.3zM147.9 72.8l.7-2.1V66.4l-.7-2.1-.8 2.1V70.7zM151.7 73.3l.8-2v-5.5l-.8-1.9-.7 1.9v5.5zM155.6 73.8l.7-2v-6.5l-.7-2-.8 2v6.5zM159.5 76.4l.7-2.3V63l-.7-2.4-.8 2.4v11.1zM183.1 71.7l.8-1.4v-3.5l-.8-1.4-.7 1.4v3.5zM179.3 72.5l.8-2.3v-3.3l-.8-2.3-.8 2.3v3.3zM175.2 72.8l.7-2.1V66.4l-.7-2.1-.8 2.1V70.7zM171.3 73.3l.7-2v-5.5l-.7-1.9-.8 1.9v5.5zM167.4 73.8l.8-2v-6.5l-.8-2-.7 2v6.5zM163.6 76.4l.7-2.3V63l-.7-2.4-.8 2.4v11.1zM22.7 71.7l.8-1.4v-3.5l-.8-1.4-.7 1.4v3.5zM26.6 72.5l.8-2.3v-3.3l-.8-2.3-.8 2.3v3.3zM30.7 72.8l.8-2.1V66.4l-.8-2.1-.8 2.1V70.7zM34.6 73.3l.8-2v-5.5l-.8-1.9-.8 1.9v5.5zM185.7 68.1v1h7.6l4.8-.5-4.8-.5zM11.5 69.1h7.6v-1h-7.6l-4.7.5z"/></g><g fill="#a5acaf"><path d="M83.2 53.3V14.6H70.9v13.6H56.5V14.6H44.2v38.7h12.6V38h14.1v15.3zM219.4 68.7c-4.5-6.3-19.7-28.3-24.3-34.8 4.5-6.5 9-12.8 13.5-19.3h-15.1c-4.5 6.6-9.1 12.9-13.3 19.2V14.6h-12.3v38.7h12.3V34.1c4.5 6.6 19.6 28.3 24.1 34.6h15.1zM116.1 39.8c0 1.8-1.5 3.2-3.2 3.2H99.2c-1.8 0-3.2-1.5-3.2-3.2V27.9c0-1.8 1.5-3.2 3.2-3.2h13.7c1.8 0 3.2 1.5 3.2 3.2v11.9zm1.9-25.2H95.2c-5.5 0-10 4.5-10 10v18.7c0 5.5 4.5 10 10 10H118c5.5 0 10-4.5 10-10V24.6c0-5.5-4.6-10-10-10M129.7 24.6v18.9c0 5.5 4.4 9.9 9.9 9.9h26.6V43.3H144c-1.8 0-3.3-1.5-3.3-3.2V28c0-1.8 1.5-3.3 3.3-3.3h22.1v-10h-26.6c-5.5-.1-9.8 4.3-9.8 9.9M13.6 14.6c-3.6.1-6.4 2.4-7.3 6.1-.8 3-.9 6.1-.2 9 .8 3.5 2.8 5.9 6.5 6.8l16.2 4.8c.3.2.5.6.5 1.1 0 .5-.2.9-.6 1.1-.1.1-.3.2-.4.2h-22v9.6H34c4.1 0 6.8-2.3 7.5-5.8.5-2.3.5-4.7.5-7-.2-6-2.6-8-8.1-9.5-4.6-1.3-9.2-2.5-13.8-3.8-.6-.2-1.2-.4-1.7-.7-.3-.2-.5-.6-.5-1.1 0-.7.5-1.3 1.1-1.3h23.1v-9.5H13.6z"/></g></svg>