<svg xmlns="http://www.w3.org/2000/svg" viewBox="0 0 225 190.3"><g fill="#fff"><path d="M55.21 142.224l1.46-.141c.048.408.237.801.535 1.084.314.251.691.361 1.084.346.393.031.77-.079 1.1-.315a.947.947 0 00.377-.722.659.659 0 00-.157-.44 1.034 1.034 0 00-.534-.314c-.173-.063-.582-.173-1.21-.33a4.006 4.006 0 01-1.697-.739 1.975 1.975 0 01-.691-1.492c0-.377.11-.754.314-1.068.22-.346.55-.597.927-.754a3.585 3.585 0 011.461-.252 3.06 3.06 0 012.105.613c.472.408.739 1.005.739 1.634l-1.509.063a1.243 1.243 0 00-.408-.817 1.572 1.572 0 00-.958-.252 1.78 1.78 0 00-1.021.267.544.544 0 00-.236.44.53.53 0 00.22.44c.424.251.895.424 1.382.503.566.11 1.1.298 1.618.534.346.173.629.44.817.754a2.327 2.327 0 01-.063 2.388c-.235.377-.596.66-1.005.833a4.378 4.378 0 01-1.618.267 3.236 3.236 0 01-2.168-.66 2.895 2.895 0 01-.864-1.87zM81.084 144.66v-7.447h5.514v1.257h-4.006v1.65h3.724v1.256h-3.74v2.027h4.164v1.256h-5.656zM106.55 140.983a4.713 4.713 0 01.346-1.916c.173-.377.408-.723.691-1.022.267-.282.597-.518.958-.675a4.268 4.268 0 011.603-.299 3.548 3.548 0 012.639 1.022 4.535 4.535 0 010 5.655 3.923 3.923 0 01-5.263 0 3.709 3.709 0 01-.974-2.765zm1.555-.047a2.81 2.81 0 00.582 1.917 2.027 2.027 0 002.843.125c.047-.031.079-.078.126-.125.424-.55.628-1.241.581-1.948a2.797 2.797 0 00-.565-1.917 2.068 2.068 0 00-2.938-.047l-.047.047a2.736 2.736 0 00-.582 1.948zM133.587 137.213h1.508v4.037a8.2 8.2 0 00.047 1.241c.047.299.205.55.44.739.299.204.644.298.99.283.346.031.675-.063.974-.267a1.07 1.07 0 00.393-.645c.047-.424.078-.848.063-1.272v-4.116h1.508v3.912a9.434 9.434 0 01-.126 1.885c-.063.345-.22.66-.44.942a2.53 2.53 0 01-.895.613 3.685 3.685 0 01-1.43.22c-.55.031-1.1-.063-1.618-.251a2.42 2.42 0 01-.895-.644 2.037 2.037 0 01-.425-.817 9.529 9.529 0 01-.141-1.886l.047-3.974zM159.32 144.66v-7.384h1.508v6.127h3.74v1.256h-5.248z"/></g><g fill="#ac8a00"><path d="M105.23 185.537l16.999-32.724h-8.107L97.14 185.537zM124.412 185.537h8.107l-12.505-24.194-4.054 7.824zM186.624 152.813h-26.408v.99c0 2.702 2.199 4.901 4.901 4.901h4.902v26.833h7.006v-26.833h9.63l-.031-5.891zM219.38 152.813h-8.563l-6.896 11.908h-.236l-6.897-11.908h-8.562s7.494 11.845 12.019 18.993v13.73h7.006v-13.651a4446.964 4446.964 0 0012.128-19.072zM67.118 152.813h-8.562L51.66 164.72h-.235l-6.866-11.908h-8.561s7.493 11.845 12.018 18.993v13.73h7.006v-13.651a4898.545 4898.545 0 0012.097-19.072zM156.037 166.575h-14.155s-1.21.047-1.037-1.383v-5.168s-.063-1.508 1.822-1.336h10.683c2.702 0 4.902-2.199 4.902-4.901v-1.006h-19.606s-4.053-.172-4.18 3.347v12.552s-.376 3.692 3.63 3.786h13.715s1.335-.031 1.445 1.241v4.776s0 .99-1.335 1.147h-17.203v5.891h21.067a4.47 4.47 0 003.786-3.629v-11.468c0 .016-.031-3.708-3.534-3.85zM5.63 152.813v.99a4.934 4.934 0 002.418 4.21v8.64H5.786v3.535s-.031 1.854 2.262 1.995v13.354h7.023v-32.74l-9.442.016zM31.833 152.813H16.8v5.907h10.824s1.335-.032 1.445 1.24v16.968c-.141 2.67-2.403 2.482-2.403 2.482h-9.866v6.127h15.034c3.598-.691 3.535-3.85 3.535-3.85v-25.01c.016 0 .079-3.157-3.535-3.864zM91.107 152.813H76.246a.506.506 0 01-.44-.236 2.803 2.803 0 00-2.341-1.257h-3.85v34.217h6.27v-25.309a1.857 1.857 0 011.869-1.477h9.206a1.845 1.845 0 011.87 1.477v25.309h6.268v-29.095c-.723-3.865-3.99-3.63-3.99-3.63z"/></g><path d="M159.057 12.632l-5.503-4.921-16.995 1.091-8.364-4.049H91.562l-8.364 4.049-16.994-1.091-5.504 4.921 1.819 18.159-10.377 26.426 5.65-1.382 4.848 32.001 5.018-3.709 17.286 22.28 1.576-6.57 2.812 1.188 3.88 14.134 7.83-2.134 8.849 9.601 8.849-9.6 7.83 2.133 3.88-14.134 2.812-1.188 1.575 6.57 17.286-22.28 5.019 3.71 4.848-32.002 5.65 1.382-10.377-26.426 1.794-18.159z"/><path d="M66.688 31.203l-8.727 20.534 3.103-.606 4.364 29.214 2.4-2.497 15.37 19.031.097-7.152L69.55 73.654 66.06 49.87l9.94-22.474-10.135-12.728-.945-.46 1.77 16.994zM87.587 61.774L98.35 65.92l-1.964-5.867-10.255-4.073 1.455 5.794z" fill="#fff"/><path d="M152.414 11.59l2.376 2.036v.582l-13.964 6.716 12.8 28.947-3.49 23.783-13.747 16.073v-7.249l10.037-11.71 2.618-20.8-7.03-15.953-7.831-4.703 7.37 17.916-21.795 8.582-3.103 11.565 2.497 6.11.994-3.322 15.637-6.207 2.327-9.091 5.382-2.327-2.06 16.97-6.643 5.891-5.043-3.37v15.856L119.37 98.867 112 96.322l8.437-7.589v-7.54l-10.595 9.77-10.594-9.77v7.54l8.437 7.589-7.37 2.545L89.937 87.91V72.03l-5.043 3.37-6.642-5.867-2.061-16.946 5.382 2.327 2.327 9.092L99.54 70.21l.994 3.322 2.497-6.11-3.103-11.588-21.795-8.583 7.394-17.916-7.83 4.704-7.056 15.952 2.594 20.801 10.037 11.71v7.249L69.55 73.654 66.06 49.87l12.8-28.947-13.94-6.716v-.582l2.376-2.036 16.849 1.527 10.061-4.582h31.299l10.06 4.582 16.85-1.527zM99.32 15.808l-3.54 2.958 7.638 2.958.775 4.582-7.854-3.055-4.098 3.055 12.05 4.679.8 4.752-11.783-4.728-4.51 3.297 17.99 6.813 3.054 6.933 3.055-6.933 17.989-6.813-4.485-3.321-11.783 4.776.776-4.752 12.05-4.679-4.098-3.055-7.855 3.055.776-4.582 7.637-2.958-3.54-2.957-10.522 3.563-10.522-3.588z" fill="#ac8a00"/><g fill="#fff"><path d="M152.996 31.203l8.728 20.534-3.104-.606-4.363 29.214-2.425-2.497-15.346 19.031-.097-7.152 13.746-16.073 3.491-23.783-9.94-22.474 10.158-12.728.946-.46-1.794 16.994zM132.098 61.774l-10.764 4.146 1.963-5.867 10.256-4.073-1.455 5.794zM109.842 101.558l-10.812 3.758-7.055-7.249 3.83 13.213 6.594-1.43 7.467 7.806 7.468-7.806 6.594 1.43 3.806-13.213-7.055 7.249-10.837-3.758z"/></g></svg>