<svg xmlns="http://www.w3.org/2000/svg" viewBox="0 0 225 196.2"><g fill="#fff"><path d="M57.283 134.804l.346-.362h1.194l.314.33v.786h1.87v-1.556l-1.226-1.24H56.64l-1.225 1.24v2.97l3.582 1.916v1.1l-.346.361h-1.178l-.33-.33-.016-.8-1.87.015v1.57l1.226 1.242h3.142l1.241-1.257v-2.938l-3.582-1.916zM71.72 132.761v9.285h1.87v-3.613h1.791v3.613h1.901l-.016-9.285h-1.885v3.818h-1.79v-3.818zM89.269 132.761l-1.681 9.254h1.775l.33-1.98h1.382l.267 1.98h1.823l-1.681-9.285-2.215.031zm.707 5.609l.408-2.64.424 2.64h-.832zM107.367 142.046h1.508v-9.285h-1.728v4.383l-2.231-4.383h-1.603v9.285h1.744l-.015-4.823zM123.092 134.442l.315.33v.88h1.885v-1.65l-1.241-1.24h-3.142l-1.226 1.24v6.803l1.226 1.241h3.142l1.24-1.241v-3.55h-2.67v1.665h.786v1.1l-.33.33h-1.194l-.33-.33v-5.216l.361-.362zM136.132 132.761v9.285h1.87v-3.613h1.806l-.016 3.613h1.901v-9.285h-1.9l.015 3.818H138v-3.818zM153.68 132.761l-1.697 9.254h1.807l.33-1.98h1.382l.267 1.98h1.823l-1.681-9.285-2.231.031zm.722 5.609l.409-2.64.424 2.64h-.833zM167.725 132.761h1.869v9.285h-1.87z"/></g><path d="M218.8 146.8h-21l-5.3 5.2v9.5l17.5 9.4v5.4c-2 5.2-4.5 6.6-4.5 6.6-2.1-1.6-3.7-3.6-4.8-5.9v-6h-10.3v7.4c.7-.4 1.4-.6 2.1-.8v2c0 3.1 6.4 8.3 13 11.7 7.1-3.8 11.8-8.1 13-11.7v-13.9l-17.1-9.1v-.9c0-.9.3-1.6 1.2-1.6h7s.8-.1.8.6v1.8s7.9 4 8.2 4.1c.3.1.6 0 .7-.3V147.2c.1-.4-.2-.4-.5-.4zM154.1 146.8h-16.3c-6.1 0-5.5 6.9-5.5 6.9v30.7c0 3.3 4.8 6.5 6.1 6.5h14.3c1.4 0 6.1-2.7 6.1-6.5v-34.7c0-1 0-2.9-4.7-2.9zm-4.7 36.1l-6.5.7c-1.7.3-1.6-.7-1.6-.7v-27l-4.1-1.8h13.1v27.1c-.1 1.7-.9 1.7-.9 1.7zM35.1 147.2c-.3-.3-.8-.4-1.2-.3H5.6L8.4 158s1.6-3 4.6-3.1V188l-1.1 3H34s5.7-3.4 5.7-6.1v-32.2s.1-1.2-.6-1.8l-4-3.7zm-4.3 33.7c0 1.1-.9 2-2 2.1H22v-27l-4.6-1.8H29s1.9-.1 1.9 1.5l-.1 25.2zM129.5 162.7h-16.3c-.1 0-.1.1-.1.1l2.4 8.1c1.3-.7 2.7-1.3 4.1-1.6v7.3c-1.8 4.7-4.5 6.2-4.5 6.2-3.6-2.7-4.5-5.6-4.5-5.6v-21.1c0-1.5.4-2.2 1.5-2.2h6.4s1.1-.1 1.1.9v4.5h8.9v-12c0-.3-.3-.6-.6-.6h-20.3c-.6 0-1.1.2-1.5.5l-3.7 3.7c-.4.4-.7 1-.6 1.6v26.6c1.6 5.7 11.8 10.8 13.3 11.7 0 0 11-5.1 13.5-11.7v-10h1.2v-6.5c-.1.2-.1.1-.3.1.1 0 .1 0 0 0zM101 187.9l-7.8-40.3c-.1-.5-.5-.8-1-.8H80.5l-5.2 26.7h-9l4.3 9.6s1.2-2.3 3.5-2.9l-1.3 7s-.4 1.9-.9 1.9c-.7 0-1.7-1.9-1.7-1.9l-8-16.8s7.4-3.7 7.4-5.9v-14.6c0-2.4-.4-3.1-1.6-3.1H41.8l1.1 3.3v37.5s-.6 1.4-3.1 3.4h13.6l-1.6-3.3v-11.3l3.1-1.8 6 13.7-1 2.7h23.3l-1.1-3.1 1.3-7.8h4.5l1.5-4.6 2 12.3c-.4 1.8-2.2 3.2-2.2 3.2h13.9c-.6-.7-2.1-3.1-2.1-3.1zm-42.2-24.1c-1.8.9-6.9 3.6-6.9 3.6v-11.2c0-.8.3-2 1.3-2.1H59s1.6 0 1.6.8v7c0 .1 0 1-1.8 1.9zm25.7 9.7l2.3-15 2.4 15h-4.7zM188.5 188v-40.1s.1-1.1-.9-1.1h-8.8s1.3 2.1 1.3 3.3v17.5c-7.3-13.9-10.6-20.8-10.6-20.8h-9c1.5.7 1.4 3.2 1.4 3.2v37.7c0 .8-.3 1.6-.8 2.2-.4.4-.8.7-1.2 1h12.5s-2.3-2.2-2.3-3.5V168l11 22.9h8.7c-.8-.7-1.3-1.8-1.3-2.9zM129.4 10.5c1 1.2 6.1 8.5 9.7 12.6.2-2.5.3-4.8 1.6-6.9-.3 4.6 3.6 10.1 5 11.9 2.4 3.2 6.3 3.2 5.7-.9 3.3 2.6 3.5 7.1.3 8.9 3.6 3.9 3.3 4.3 5.2 4.9.8.3 1.7.1 2.3-.4.3-.2.4-.9-.4-1.5-4.1-2.7-2-8.1-1.8-8.2 0 .1-.6 4.4 1.7 5.8 5.3 3.2 5.7 5.7 5.1 10.2-.2 1.4-2.2 4.1-4.8 5.2.3-.8.5-1.7.6-2.6-.7 1.1-3.4 2.4-5.3 2.4.8-.7 1.5-1.5 2.1-2.4-.5-.1-.9.1-1.2.5-.3.4-2 2.1-5.1 1.3 1.2-.5 1.3-1 1.6-1.7.2-.4.1-.6-.4-.7-6-1-7.2-5.7-12.9-8.6-.6-.3-1.3-.5-2-.7-.3-.1-.4 0-.5.3-.2 1.2-.8 4.3 2.3 5.6 1.9 1 6.9 1.6 8.9 6.8-3.5-2.2-4.2-2-5.7-2 2.2 1.6 3.2 2.8 4 4.2.8 1.8 1.9 2 3.1 2.1 2.3.6 3.1-1.5 3.2-1.6 1.3 4-.4 6.3-3.1 7.1-1.9.6-3.8.8-5.7.8-5.9.3-6.1-6.1-12.8-4.9.9-.8 3.3-3 6.5-.7-.4-.8-.4-1.8-3.9-2.6 3.8-1.2 6.2.6 7.8 1.2 0 0-.2-3.6-10-5.9-2.3-.4-14.7-2.7-14.4-11.5 2 4 7.2 4.9 9.6 2 .3-.3.2-.5-.2-.8-9.5-6.7-40.2 2-31.9 13.7-.9-.1-12.5.7-13.5-12.4-1.1 9.6 6.1 13.8 8.5 15 3.9 2.8 49.7 6 62.3 11.9 3.8 1.5 4.4 4.6 4.4 7.7 0 26.1-21.6 41.5-40.5 52.8-.2.1-.4.1-.5 0-14.4-10-41.2-20.9-39.8-55.8 5.9 23.7 37 36.6 38.7 37 2.8-1.1 15-6.1 9.1-15.5 2.4.9 4.1 2.6 5.6 4.6 1.4-3.6 1.2-7-1.7-9.8 5.6.8 10.3 3.1 14.2 7.4-9-20-43.5-10.5-54.5-18.6-10.8-8-11.2-18.9-18.3-25.4 2 .3 3.9.7 5.6 1.8-1.1-3.4-3.2-5.8-7.4-8.9 1.8-.9 3.8-1.4 5.9-1.3-2-1.5-5-3.8-6.5-6.4 2.2.9 5.8.2 6.9-.5 5.7-4.9 11.3-9.5 17.5-12.7 11-5.6 22.6-4.4 23.4-6.5.1-.8 0-1.6-.1-2.4-.2-1.1-2.8-2.5-5.2-3.7 3.2.2 11.4.2 18.2 6.5 1.6-5.1-4.7-12.6-9.5-13.2 2.8-.1 9.8 1.1 13 5.5zm11.9 22.3c1 3.1 1.8 4.8 3.2 5.4 1.3.6 2.9.2 3.6-1 .1-.3.1-.4-.2-.5-.6-.2-1.2-.5-1.8-.9-1.3-.7-2.6-2.3-4.8-3z"/><path d="M73 86.9c-.7-2.8-1.1-7.7-.8-9.7 1-18.4-12.5-18.7-17-23.6-6.8-7.6-6.5-15.6-5.1-21.3-5 7-2.5 21.5-1.2 23.5.2.4.5.7.9.7 3.2 1.8 6 4.3 8 7.3-3.8-.1-6.8-1.7-9.2-4.5.2 1 3.5 6.6 4.9 8.3.4.6.6.8 1.8 1.1C64.1 72 73 86.9 73 86.9z" fill="#fce300"/></svg>