<svg xmlns="http://www.w3.org/2000/svg" viewBox="0 0 225 202.7"><g fill="#91a1af"><path d="M64.777 138.897h-1.854v-1.493h5.31v1.509H66.38v9.677h-1.602v-9.693zM77.14 140.028a2.685 2.685 0 012.687-2.686 2.685 2.685 0 012.686 2.686v5.907a2.685 2.685 0 01-2.686 2.686 2.685 2.685 0 01-2.686-2.686v-5.907zm1.603 5.907c0 .597.487 1.084 1.084 1.084.597 0 1.084-.487 1.084-1.084v-5.907c0-.597-.487-1.084-1.084-1.084-.597 0-1.084.487-1.084 1.084v5.907zM92.426 137.42h2.577c1.9 0 2.828 1.116 2.828 3.284 0 1.288-.362 2.23-1.383 2.796l1.728 5.106h-1.712l-1.493-4.776h-.958v4.776h-1.602l.015-11.186zm1.603 4.996h.911c1.115 0 1.288-.628 1.288-1.744s-.188-1.744-1.366-1.744h-.833v3.488zM108.325 140.028a2.685 2.685 0 012.686-2.686 2.685 2.685 0 012.687 2.686v5.907c0 1.477-1.21 2.686-2.687 2.686s-2.686-1.21-2.686-2.686v-5.907zm1.602 5.907c-.031.597.409 1.115 1.022 1.147s1.115-.409 1.146-1.021v-6.033a1.078 1.078 0 00-1.02-1.147 1.078 1.078 0 00-1.148 1.021v6.033zM124.16 137.42h1.54l2.42 6.74h.031v-6.74h1.602v11.186h-1.508l-2.45-6.724h-.032v6.724h-1.602V137.42zM141.363 138.897h-1.854v-1.493h5.31v1.509h-1.853v9.677h-1.603v-9.693zM154.355 140.028c0-1.477 1.21-2.686 2.687-2.686s2.686 1.21 2.686 2.686v5.907c0 1.477-1.21 2.686-2.686 2.686s-2.687-1.21-2.687-2.686v-5.907zm1.603 5.907c-.032.597.408 1.115 1.02 1.147s1.116-.409 1.148-1.021v-6.033a1.078 1.078 0 00-1.021-1.147 1.078 1.078 0 00-1.147 1.021v6.033z"/></g><g fill="#c10021"><path d="M107.162 160.388h7.714v37.249h-7.714zM180.214 197.637h6.834v-37.249h-7.714v21.429l-13.196-21.429h-6.865v37.249h7.713v-21.429zM202.49 167.646v29.928h7.699v-27.587l-.802-2.34h9.992v-7.275h-26.063v7.274zM140.845 160.341h-6.127l-12.71 36.007-.408 1.289h8.17l1.476-4.415-1.178-3.786 2.073 1.084 13.385 7.132h8.468l-13.15-37.311zm-6.457 23.314l3.503-10.495 4.619 14.69-8.122-4.195zM82.356 167.929h17.878v-7.557H74.658v37.202h7.698v-12.348l-.88-2.42h16.37v-7.29h-15.49zM48.784 167.929h17.862v-7.557h-25.56v37.202h25.56v-7.557H48.784v-4.886l-.801-2.325h16.275v-7.32H48.784zM28.675 160.372H5.63v37.233H28.69l4.964-4.98v-27.288c-.015 0-4.98-4.949-4.98-4.965M25.8 188.65l-.895 1.116H13.468v-19.198l-.801-2.34H24.37s1.43 1.46 1.445 1.445L25.8 188.65z"/></g><path fill="#fff" d="M121.191 48.769H51.77l19.983 16.558h19.606v13.872l3.928.833-3.928 2.23v25.34l17.156 16.119V65.327h32.535z"/><path d="M176.255 65.028h-.031L108.529 5.283v-.235L91.36 21.15v21.947h17.155V29.43l41.867 35.598-36.353 30.73.015 24.02 20.55-18.098.628-7.07s1.335 2.891 2.152 4.65l7.336-6.44-4.304-6.992 7.525 4.117 28.294-24.9h.031v-.017z" fill="#fff"/></svg>