<svg xmlns="http://www.w3.org/2000/svg" viewBox="0 0 220.5 225"><g fill="#32b22c"><path d="M43.2 163.3l2.2 5.1 2.2-5.1h1.6l-3.5 8h-.5l-3.6-8h1.6zM61.3 163.3l3.5 7.9h-1.6l-.8-1.9h-3.5l-.8 1.9h-1.6l3.2-7.9h1.6zm-2 4.8h2.5l-1.3-3.1-1.2 3.1zM75.1 163.3l4.7 5.5v-5.5h1.5v7.9H80l-4.7-5.6v5.6h-1.5v-7.9h1.3zM95.2 163.2c.4 0 .9 0 1.3.2.5.1.9.3 1.4.5v1.4c-.4-.2-.9-.4-1.3-.6-.4-.1-.9-.2-1.3-.2-.5 0-1 .1-1.5.3-.4.2-.8.6-1.1 1-.5.9-.5 1.9 0 2.8.2.4.6.8 1 1 .5.2 1 .3 1.5.3.4 0 .8-.1 1.2-.2.5-.2 1-.4 1.5-.7v1.4c-.4.2-.9.4-1.4.6-.5.1-1 .2-1.5.2-.8 0-1.5-.2-2.2-.5-.6-.3-1.2-.8-1.5-1.4-.4-.6-.6-1.3-.6-2 0-.8.2-1.5.6-2.1.4-.6.9-1.1 1.6-1.5.7-.4 1.5-.5 2.3-.5zM111.4 163.2c.8 0 1.5.2 2.2.5 1.9 1 2.7 3.5 1.6 5.4-.4.7-.9 1.3-1.6 1.6-1.4.7-3 .7-4.4 0-1.3-.7-2.1-2-2.1-3.5 0-.7.2-1.4.6-2 .4-.6.9-1.1 1.5-1.5.6-.4 1.4-.5 2.2-.5zm-2.8 4c0 .5.1 1 .4 1.4.2.4.6.7 1 1 .4.2.9.4 1.4.3.7 0 1.5-.2 2-.8.5-.5.8-1.2.8-2 0-.5-.1-1-.4-1.4-.2-.4-.6-.8-1-1-.4-.2-.9-.3-1.4-.3-.5 0-1 .1-1.4.3-.4.2-.8.6-1 1-.3.5-.4 1-.4 1.5zM126.7 163.3v4.6c0 .4.1.8.2 1.1.2.3.4.5.7.7.3.2.7.3 1.1.3.4 0 .8-.1 1.2-.3.3-.2.6-.4.7-.7.2-.4.2-.8.2-1.2v-4.5h1.5v4.7c.1.9-.3 1.8-.9 2.4-.8.6-1.7.9-2.7.9-.7 0-1.3-.1-1.9-.4-.5-.2-.9-.6-1.2-1.1-.3-.5-.4-1.1-.4-1.7v-4.7l1.5-.1zM142.9 163.3l2.2 5.1 2.2-5.1h1.6l-3.5 8h-.5l-3.6-8h1.6zM163 163.3v1.2h-3.5v2.1h3.4v1.2h-3.4v2.2h3.6v1.2h-5.2v-7.8l5.1-.1zM175.4 163.3c.7 0 1.3.2 1.8.6.5.4.7 1 .7 1.6 0 .4-.1.8-.3 1.2-.3.4-.6.6-1 .8.3.1.5.3.7.6.3.4.5.8.7 1.2.5 1 .8 1.6 1.1 2h-1.7c-.2-.3-.3-.5-.5-.8-.3-.6-.6-1.1-1-1.7-.2-.2-.4-.5-.6-.6-.2-.1-.4-.2-.6-.2h-.6v3.3h-1.5v-7.9h2.8zm-.4 3.3c.3 0 .7-.1.9-.3.2-.2.4-.5.3-.8 0-.3-.1-.6-.3-.8-.3-.2-.6-.3-1-.3h-.9v2.2h1z"/></g><g fill="#fff"><path d="M58.5 219.4l-2-3.6v-34.1l2-3.6H43.4l2 3.6v34.1l-2 3.6zM24.5 184.8h12.9l2.6 2.8v-9.5H5.5v9.5l2.6-2.8h9.7v31l-2 3.6h15.1l-2-3.6v-29.3zM79.5 184.8h11.4l1.6 2.8 3-9.5H61.9v9.5l2.6-2.8H73v31l-2 3.6h15.1l-2-3.6v-29.1zM208 196.2c-2.2-.5-13.1-2.3-15.1-2.6-2-.3-1.8-1.7-1.8-1.7v-3.8l-4.9-2 21.5-.2.8 2.9 6.4-10.8H187c-4.4 0-6.7 3-6.7 5.6v10.7c0 3.3 2.1 6 4.3 6.2 2.2.2 15.1 2.6 16.8 2.8 1.7.2 2.2.5 2.2 1.5v5.3c0 1.3-.5 1.3-1.3 1.3h-15.9l-1.8-2.2-5.9 9.9H207c4.4 0 7.6-3.5 7.6-5.6v-11.3c0-4.5-4.3-5.5-6.6-6zM100.7 178.1l1.7 2.9-11 34.9-2.7 3.4H104l-1.3-2.2 2-7.4-3.6-1.4h15.5l2.3 8.8-1.3 2.3H133l-2.6-3.2-11-34.7 1.9-3.3-20.6-.1zm6.2 23.1l3.9-14.9 3.9 14.9h-7.8zM174.5 216v-35.2l1.5-2.7h-14.6l2 3.5v21.5l-14.8-25h-13.4l2 3.5v34.3l-2 3.5h15.1l-2-3.6v-19.1l13.5 22.7h14.6z"/></g><path d="M167.9 88c-1.4-1.2-5.2-5.9-5.2-9.4 0-.9-.1-1.7-.2-2.6 2.5 1.4 7.4 1.5 9.9-.6-2.1-.8-2.7-1.5-4-2.9-.1-.1-7.6-7.7-9.5-14-1.8-5.9-5.5-17.9-14.7-24.2-3.5-6.1-7.3-12-11.5-17.7l-.6-.6L121 8.2l-2.4 3.2s-5.9-6.6-8.2-9.2c-2.3 2.6-8.2 9.2-8.2 9.2l-2.4-3.2L88.7 16l-.6.6c-4.2 5.7-8.1 11.6-11.5 17.7-9.2 6.3-12.9 18.4-14.7 24.2-1.9 6.3-9.4 14-9.5 14-1.3 1.4-2 2.1-4 2.9 2.4 2.1 7.4 2.1 9.9.6-.1.9-.1 1.7-.2 2.6 0 3.4-3.8 8.1-5.2 9.4-.7 0-3.1.3-6.9-1.8.2 2.2 1 4.3 2.5 6 2.5 3.1 8.2 4.9 13.2 4.8-.3 3.4.3 7.4.9 11.1.1.7.3 1.6.3 1.8v.1c0 1.5.1 3.8-3.2 6.3-1.5 1.1-2.5 1.1-3.6.9.8 1.8 2.8 3.2 4.1 3.9 5.4 2.7 10.9.9 14.4-1 1.4 4.2 0 7.4.7 11.4.7 3.8 2.3 7.5 4.6 10.6.3.3.6.6 1 .8l10.6 4.9-.3-3.4c.5.7.8 1.1.8 1.2.2.2.3.4.6.6.3.2 6.3 5 10.8 7.4 2.2 1.2 4.6 1.9 7.1 2 2.5-.1 4.9-.8 7.1-2 4.5-2.4 10.5-7.2 10.8-7.4.2-.2.4-.3.6-.6 0-.1.4-.5.8-1.2l-.3 3.4 10.6-4.9c.4-.2.8-.5 1-.8 2.3-3.1 3.9-6.8 4.6-10.6.7-4-.6-7.2.7-11.4 3.5 1.9 9 3.7 14.4 1 1.3-.6 3.3-2.1 4.1-3.9-1.1.2-2.1.2-3.6-.9-3.3-2.4-3.2-4.8-3.2-6.3v-.1c0-.2.2-1.1.3-1.8.7-3.7 1.2-7.8.9-11.1 5 .1 10.7-1.6 13.2-4.8 1.4-1.7 2.3-3.8 2.5-6-4 2.1-6.4 1.8-7.1 1.8z" fill="#2fb228"/><path d="M154.1 85.4c3.7 1.7 10.4 2.4 10.4 2.4s-5-5.3-4.8-8.5c.2-3.2-.7-7.5-.7-7.5l7.3 2.8s-8-8.1-10.2-15.2c-2.2-7.1-5.8-17.7-14.1-23.1-4.9-9.1-11.6-18-11.6-18l-8.9-6.4-2.8 4.2-8.4-10.4-8.4 10.4-2.8-4.2-8.9 6.3s-6.7 8.9-11.6 18c-8.4 5.4-12 16-14.1 23.1-2.2 7.1-10.2 15.2-10.2 15.2l7.3-2.8s-1 4.3-.7 7.5c.2 3.2-4.8 8.5-4.8 8.5s6.7-.7 10.4-2.4c-1.3 2.2-7.3 6.9-15.9 5.1 2.3 3.1 10.5 4.7 15 2.9-3 3.7 0 14.8 0 16.5 0 1.7.1 5.1-4.3 8.6 7 3.6 14.9-3 14.9-3s1.8 6.3 1.8 8c0 1.7-1 2 0 7.4.7 3.4 2 6.6 4.1 9.3l6.5 3s-.7-6.2 1.1-7.7c1.3 3.7 4.7 8.1 4.7 8.1s6.2 4.7 10.5 7.2c-2.2-2.6-3.7-9.9-3.7-9.9l9.3 9.9 9.3-9.9s-1.5 7.3-3.7 9.9c4.3-2.5 10.5-7.2 10.5-7.2s3.4-4.4 4.7-8.1c1.8 1.4 1.1 7.7 1.1 7.7l6.4-3c2-2.8 3.4-5.9 4.1-9.3 1-5.4 0-5.8 0-7.4 0-1.7 1.8-8 1.8-8s7.9 6.6 14.8 3c-4.4-3.5-4.3-6.9-4.3-8.6 0-1.7 3-12.8 0-16.5 4.4 1.8 12.7.2 15-2.9-8.8 1.9-14.8-2.9-16.1-5z" fill="#09226b"/><path d="M153.1 65.6c-3.1-8-10.9-14.7-10.9-14.7l-7.2-8.7-14 6.1 10.8-10.2-9.2-14.3-4.5 7.5-7.7-13-7.7 13.1-4.5-7.5L89 38.3l10.8 10.2-14-6.1-7.2 8.7s-7.8 6.7-10.9 14.7c3.5-2 4.4-2.8 4.4-2.8L69 81.8 83.6 67l5.1-11 16.9 7.5h9.6l16.9-7.5 5.1 11 14.6 14.8-3.1-18.8c0-.1.9.6 4.4 2.6z" fill="#2fb228"/><path d="M147.4 88.4c-1.4-2.5-6.7-6.7-6.7-6.7l-9.6-5-9 2.8 6.2-7.4-13.5-5.4-4.5 3.5-4.5-3.5L92.3 72l6.2 7.4-9-2.8-9.6 5s-5.3 4.2-6.7 6.7c2.2-1.3 4.6-2.1 7.1-2.4 0 0-6.3 12.9-6.6 21.8 9.7-12.1 21.4-24.4 21.4-24.4l15.2 3.8 15.2-3.8s11.7 12.3 21.4 24.4c-.2-8.9-6.6-21.8-6.6-21.8 2.6.4 5 1.2 7.1 2.5zm-34-9.1h-6.2l-5.3-6h4.2l4.2 2.9 4.2-2.9h4.2l-5.3 6z" fill="#2fb228"/><path fill="#fff" d="M101 96.2l2.7-2.2 3.4 3.4 3.2-2.8 3.3 2.8 3.3-3.4 2.7 2.2 4.5-4.8-.6 3.9 5.4 8V92l-7.3-4.8-11.3 3.2-11.2-3.2-7.3 4.8v11.3l5.4-8-.6-3.9z"/><g><path d="M118.7 118.7c-3.5 2-8.4 1.7-8.4 1.7s-4.9.3-8.4-1.7-6.2-5.5-6.2-5.5v6.2l1.7 3.1 1.4-1.4 11.5 5.5 11.5-5.5 1.4 1.4 1.7-3.1v-6.2c.1 0-2.7 3.4-6.2 5.5z" fill="#fff"/><path d="M132.6 115.6c-2.2 4.9-8.5 9.1-8.5 9.1l-13.8 4.2-13.8-4.2s-6.3-4.2-8.5-9.1c-.1 2.6-.1 5.1 0 7.7 0 0 6.9 6.8 15.6 7.3-3 1.1-9.6 0-9.6 0s6.8 7.1 16.3 7.3c9.5-.2 16.3-7.3 16.3-7.3s-6.6 1.1-9.6 0c8.6-.5 15.6-7.3 15.6-7.3.1-2.6.1-5.2 0-7.7z" fill="#2fb228"/><path d="M99.4 64.5l-9-3.9-1.1 4.5s7.6 1 10.1-.6zM121.3 64.5l9-3.9 1.1 4.5c-.1 0-7.6 1-10.1-.6z" fill="#fff"/></g></svg>