<svg xmlns="http://www.w3.org/2000/svg" viewBox="0 0 225 177.4"><path d="M112.492 116.237S74.235 106.51 67.85 25.149l44.643-12.142 44.752 12.142c-6.079 81.085-44.752 91.088-44.752 91.088z" fill="#990034"/><g fill="#fff"><path d="M31.362 172.991H8.802c-1.97 0-3.186-1.446-3.186-3.662v-7.833h9.556v3.631h9.819v-19.805h9.556v23.991c.016 2.232-1.246 3.678-3.185 3.678zM66.31 172.991H41.457c-1.97 0-3.217-1.446-3.217-3.662v-24.007h9.557v19.82h12.204v-19.82h9.556v23.991c-.03 2.232-1.277 3.678-3.247 3.678zM99.889 172.991H76.45c-1.97 0-3.247-1.446-3.247-3.662v-6.125h9.557v2.831h10.834v-1.154l-18.606-6.032c-1.385-.431-1.8-1.308-1.8-2.755v-7.125c0-2.2 1.308-3.663 3.247-3.663H99.95c1.97 0 3.186 1.34 3.186 3.54v5.586h-9.557v-2.185H82.745v1.123l18.575 5.94c1.385.431 1.831 1.37 1.831 2.832v7.156c0 2.247-1.292 3.693-3.262 3.693zM127.281 153.186v19.82h-9.54v-19.82h-10.912v-7.849h31.378v7.849h-10.926zM141.84 172.991v-27.67h9.556v27.686l-9.557-.016zM183.174 172.991h-24.96c-1.97 0-3.156-1.446-3.156-3.662v-20.36c0-2.2 1.185-3.663 3.155-3.663h24.961c1.97 0 3.216 1.447 3.216 3.663v8.002h-9.556v-4.17h-12.219v12.68h12.219v-4.17h9.556v7.987c-.015 2.247-1.277 3.693-3.216 3.693zM190.022 172.991v-27.67h29.07v7.85h-19.513v2.246h14.88v7.248h-14.88v2.462h19.79v7.849l-29.347.015z"/></g><g fill="#fff"><path d="M43.673 132.764l2.185 5.91.846-2.247-1.385-3.663h1.262l.739 2.032.754-2.032h1.262l-1.416 3.663.877 2.247 2.14-5.91h1.646l-3.047 8.003h-1.2l-1.016-2.755-1 2.755h-1.247l-3.047-8.003h1.647zM64.002 132.764h1.462l3.108 8.003h-1.6l-.77-2.062h-2.908l-.77 2.062h-1.6l3.078-8.003zm1.754 4.679l-1.031-2.755-1.031 2.755h2.062zM76.944 138.32h1.462v.662a.537.537 0 00.523.507h2.108c.293 0 .524-.23.524-.523v-.77a.418.418 0 00-.308-.43l-3.355-.893a1.292 1.292 0 01-.954-1.308v-1.308c0-.892.723-1.616 1.616-1.616h2.893c.892 0 1.631.724 1.631 1.616v.97h-1.477v-.662a.506.506 0 00-.524-.508h-2.092a.542.542 0 00-.54.523v.754c-.014.2.124.385.309.431l3.355.893c.584.17.969.708.969 1.308v1.308c0 .892-.739 1.631-1.631 1.616H78.56a1.616 1.616 0 01-1.616-1.616v-.954zM91.579 132.764h1.523v3.232h3.309v-3.232h1.539v8.003h-1.54v-3.355h-3.308v3.355H91.58v-8.003zM106.398 132.764h1.555v8.003h-1.555v-8.003zM116.386 132.764h1.246l3.832 3.832v-3.832h1.54v8.003h-1.54v-2.186l-3.54-3.554v5.724h-1.538v-7.987zM131.39 134.242c0-.893.739-1.616 1.631-1.616h3.032c.893 0 1.616.723 1.616 1.616v1.062h-1.478v-.754a.502.502 0 00-.507-.508h-2.247a.512.512 0 00-.508.508v4.416c0 .277.23.508.508.508h2.262a.5.5 0 00.508-.492v-1.016h-1.493v-1.185h2.97v2.493c0 .892-.723 1.616-1.616 1.616h-3.031a1.629 1.629 0 01-1.632-1.616l-.015-5.032zM145.948 132.764h6.833v1.34h-2.647v6.663h-1.524v-6.664h-2.662v-1.339zM166.308 132.626c.892 0 1.616.723 1.616 1.616v5.047c0 .893-.724 1.616-1.616 1.616h-3.555a1.616 1.616 0 01-1.616-1.616v-5.047c0-.893.723-1.616 1.616-1.616h3.555zm-3.124 1.416a.516.516 0 00-.523.508v4.416c0 .277.246.508.523.508h2.708a.525.525 0 00.523-.508v-4.416a.516.516 0 00-.523-.508h-2.708zM176.372 132.764h1.247l3.8 3.848v-3.832h1.54v8.002h-1.54v-2.185l-3.539-3.555v5.725h-1.539l.031-8.003z"/></g><path d="M112.492 18.286l38.673 10.91a211.893 211.893 0 01-1.416 13.45c-3.924 3.17-20.483 16.405-37.272 16.405-16.143 0-32.055-12.28-36.749-15.99a221.377 221.377 0 01-1.508-13.865l38.272-10.91z" fill="#003768"/><g fill="#fff"><path d="M112.492 59.036c16.79 0 33.348-13.235 37.273-16.405-.293 2.2-.616 4.34-.985 6.402-2.663 2.216-19.36 16.035-36.288 16.035-16.035 0-31.84-12.45-35.733-15.589-.37-2.077-.708-4.216-1.016-6.432 4.679 3.693 20.622 15.989 36.75 15.989z"/><path d="M112.492 69.177c15.99 0 31.748-13.388 35.703-16.959-.585 3.001-1.2 5.864-1.878 8.557-6.678 5.278-20.175 14.388-33.825 14.388-13.265 0-26.392-8.602-33.255-13.927a160.684 160.684 0 01-1.893-8.494c4.724 4.14 19.836 16.435 35.148 16.435z"/><path d="M58.923 19.194c7.633 88.933 53.585 101.32 53.585 101.32s46.028-12.387 53.677-101.32L112.492 5.113l-53.569 14.08zm8.941 5.955l44.644-12.142 44.751 12.142c-6.079 81.085-44.751 91.088-44.751 91.088s-38.273-9.726-44.644-91.088z"/><path d="M140.023 79.55v-9.573a87.45 87.45 0 004.679-3.293 108.83 108.83 0 01-4.679 12.865zM135.053 89.214a62.677 62.677 0 01-4.925 7.094V75.533a70.164 70.164 0 004.925-2.509v16.19zM85.177 79.103a113.437 113.437 0 01-4.309-11.988 88.281 88.281 0 004.309 3v8.988zM94.857 95.985a67.13 67.13 0 01-4.925-7.34V73.008a70.164 70.164 0 004.925 2.508v20.468zM125.327 35.952l-7.94 5.771 3.03 9.31-7.925-5.755-7.925 5.755 3.032-9.31-7.941-5.77h9.803l3.031-9.327 3.032 9.326zM104.69 78.918v21.606a38.45 38.45 0 004.478 2.647c.154-3.4.908-21.16.908-21.16l2.432-2.523 2.431 2.523s.739 17.76.877 21.16a37.019 37.019 0 004.463-2.647V78.918c1.077-.154 4.94-1.416 4.94-1.416v24.207c-6.51 6.156-11.942 7.772-12.727 7.987-.784-.215-6.217-1.831-12.726-7.987V77.502c-.031 0 3.862 1.262 4.924 1.416z"/></g><path d="M58.923 19.194c7.633 88.933 53.585 101.32 53.585 101.32s46.028-12.387 53.677-101.32L112.492 5.113l-53.569 14.08z" fill="none" stroke="#003768" stroke-width=".46167"/></svg>