<svg xmlns="http://www.w3.org/2000/svg" viewBox="0 0 32 32">
	<path d="M30.3,20.8c-0.7,0-1.2,0.5-1.2,1.2v4.2c0,1.6-1.3,3-3,3H22c-0.7,0-1.2,0.5-1.2,1.2c0,0.7,0.5,1.2,1.2,1.2h4.2
			c3,0,5.4-2.4,5.4-5.4V22C31.5,21.3,31,20.8,30.3,20.8z"/>
	<path d="M26.1,0.5H22c-0.7,0-1.2,0.5-1.2,1.2s0.5,1.2,1.2,1.2h4.2c1.6,0,3,1.3,3,3V10c0,0.7,0.5,1.2,1.2,1.2
			c0.7,0,1.2-0.5,1.2-1.2V5.9C31.5,2.9,29.1,0.5,26.1,0.5z"/>
	<path d="M10,29.1H5.9c-1.6,0-3-1.3-3-3V22c0-0.7-0.5-1.2-1.2-1.2S0.5,21.3,0.5,22v4.2c0,3,2.4,5.4,5.4,5.4H10
			c0.7,0,1.2-0.5,1.2-1.2C11.2,29.6,10.7,29.1,10,29.1z"/>
	<path d="M10,0.5H5.9c-3,0-5.4,2.4-5.4,5.4V10c0,0.7,0.5,1.2,1.2,1.2s1.2-0.5,1.2-1.2V5.9c0-1.6,1.3-3,3-3H10
			c0.7,0,1.2-0.5,1.2-1.2S10.7,0.5,10,0.5z"/>
</svg>
