<svg data-name="Calque 1" xmlns="http://www.w3.org/2000/svg" viewBox="0 0 32 32"><path d="M10.19.5H2.44A1.94 1.94 0 00.5 2.44v7.75a1.94 1.94 0 103.88 0V4.38h5.81a1.94 1.94 0 100-3.88zM29.56.5h-7.75a1.94 1.94 0 100 3.88h5.81v5.81a1.94 1.94 0 003.88 0V2.44A1.94 1.94 0 0029.56.5zM10.19 27.62H4.38v-5.81a1.94 1.94 0 00-3.88 0v7.75a1.94 1.94 0 001.94 1.94h7.75a1.94 1.94 0 100-3.88zM29.56 19.87a2 2 0 00-1.94 1.94v5.81h-5.81a1.94 1.94 0 100 3.88h7.75a1.94 1.94 0 001.94-1.94v-7.75a2 2 0 00-1.94-1.94z"/></svg>