<svg xmlns="http://www.w3.org/2000/svg" width="32" height="32"><path d="M16 31.5C7.5 31.5.5 24.5.5 16S7.5.5 16 .5s15.5 7 15.5 15.5-7 15.5-15.5 15.5zm0-28.3C9 3.2 3.2 9 3.2 16S9 28.8 16 28.8 28.8 23 28.8 16 23 3.2 16 3.2z"/><path d="M12.5 20.5h4.7V25h-4.7zM20.7 8.3c-1-.9-2.4-1.3-4.1-1.3-1.3 0-2.4.2-3.3.7-.9.5-1.6 1.1-2 1.9-.4.8-.6 1.7-.6 2.6h4.4c0-.4.1-.8.4-1s.6-.4 1-.4.7.1.9.3c.2.2.3.5.3 1 0 .7-.3 1.1-.8 1.4-.6.3-1.4.4-2.4.4h-1.8v4.8H17v-1.9c1.6 0 2.8-.5 3.8-1.3s1.4-2 1.4-3.4c0-1.7-.5-3-1.5-3.8z"/></svg>