<svg xmlns="http://www.w3.org/2000/svg" viewBox="0 0 32 32">
	<path d="M20.4,13.5c-0.2-0.2-0.5-0.2-0.8,0l-4.9,3.1c-0.9,0.6-1.1,1.8-0.4,2.7c0.6,0.9,1.8,1.1,2.7,0.5c0.2-0.1,0.3-0.3,0.5-0.5
		l3.1-4.9C20.7,14.2,20.7,13.7,20.4,13.5z"/>
	<path d="M27,7.1C24,4.2,20.1,2.6,16,2.6c-4.1,0-8,1.6-11,4.5c-2.9,2.9-4.5,6.8-4.5,11c0,3.8,1.4,7.4,3.9,10.3c0,0,0,0,0,0
		c0,0,0,0,0.1,0.1c0,0.1,0.1,0.1,0.2,0.2c1,1.1,2.7,1.1,3.7,0.1c0.1-0.1,0.1-0.1,0.2-0.2c1.8-2,4.3-3.2,7-3.3
		c2.7-0.1,5.3,0.8,7.3,2.7c0.2,0.2,0.4,0.4,0.6,0.6c0.5,0.5,1.1,0.8,1.8,0.9c0,0,0.1,0,0.1,0c0.7,0,1.3-0.2,1.8-0.7
		c0.1-0.1,0.1-0.1,0.2-0.2l0.2-0.2c0,0,0,0,0,0c2.5-2.8,3.9-6.5,3.9-10.3C31.5,13.9,29.9,10,27,7.1z M26.1,27l-0.2,0.2c0,0,0,0,0,0
		c-0.2,0.2-0.6,0.2-0.8,0c-0.2-0.2-0.5-0.5-0.7-0.7c-2.4-2.2-5.5-3.4-8.8-3.2c-3.3,0.1-6.3,1.5-8.5,3.9c0,0,0,0,0,0
		c-0.2,0.2-0.6,0.2-0.8,0c0,0,0,0,0,0c0,0-0.1-0.1-0.1-0.1C6,27,6,27,5.9,27c-2.2-2.5-3.4-5.6-3.4-8.9c0-7.4,6-13.4,13.4-13.4
		s13.4,6,13.4,13.4C29.4,21.3,28.2,24.5,26.1,27z"/>
	<path d="M16,10.8c0.6,0,1-0.5,1-1V7.7c0-0.6-0.5-1-1-1c-0.6,0-1,0.5-1,1v2.1C15,10.4,15.4,10.8,16,10.8z"/>
	<path d="M26.3,17h-2.1c-0.6,0-1,0.5-1,1s0.5,1,1,1h2.1c0.6,0,1-0.5,1-1S26.9,17,26.3,17z"/>
	<path d="M7.7,17H5.7c-0.6,0-1,0.5-1,1s0.5,1,1,1h2.1c0.6,0,1-0.5,1-1S8.3,17,7.7,17z"/>
	<path d="M9.4,10C9,9.6,8.4,9.6,8,10c-0.4,0.4-0.4,1.1,0,1.5L9.4,13c0.2,0.2,0.5,0.3,0.7,0.3s0.5-0.1,0.7-0.3c0.4-0.4,0.4-1.1,0-1.5
		L9.4,10z"/>
	<path d="M24,10c-0.4-0.4-1.1-0.4-1.5,0l-1.5,1.5c-0.4,0.4-0.4,1.1,0,1.5c0.2,0.2,0.5,0.3,0.7,0.3c0.3,0,0.5-0.1,0.7-0.3l1.5-1.5
		C24.4,11.1,24.4,10.4,24,10z"/>
</svg>
