<svg xmlns="http://www.w3.org/2000/svg" viewBox="0 0 32 32">
	<path d="M31.5,6.4c-1.1,0.5-2.4,0.8-3.7,1c1.3-0.8,2.3-2,2.8-3.5c-1.2,0.7-2.6,1.3-4,1.5c-1.2-1.2-2.8-2-4.6-2
	c-3.5,0-6.4,2.8-6.4,6.4c0,0.5,0.1,1,0.2,1.4c-5.3-0.3-10-2.8-13.1-6.6c-0.5,0.9-0.9,2-0.9,3.2c0,2.2,1.1,4.2,2.8,5.3
	c-1,0-2-0.3-2.9-0.8v0.1c0,3.1,2.2,5.7,5.1,6.2c-0.5,0.1-1.1,0.2-1.7,0.2c-0.4,0-0.8,0-1.2-0.1c0.8,2.5,3.2,4.4,5.9,4.4
	C7.7,24.8,5,25.8,2,25.8c-0.5,0-1,0-1.5-0.1c2.8,1.8,6.2,2.9,9.7,2.9c11.7,0,18.1-9.7,18.1-18.1c0-0.3,0-0.5,0-0.8
	C29.6,8.8,30.6,7.7,31.5,6.4L31.5,6.4z"/>
</svg>
