<svg xmlns="http://www.w3.org/2000/svg" viewBox="0 0 32 32">
	<path d="M3.5,3C3.1,2.6,2.4,2.6,1.9,3c-0.4,0.4-0.4,1.1,0,1.6L26.3,29c0.2,0.2,0.5,0.3,0.8,0.3c0.3,0,0.6-0.1,0.8-0.3
		c0.4-0.4,0.4-1.1,0-1.6L3.5,3z"/>
	<path d="M11.1,7.5l1.2,1.2c0.1,0.1,0.3,0.1,0.4,0l1.2-0.9v2.3c0,0.1,0,0.1,0.1,0.2l1.7,1.7c0.1,0.1,0.3,0.1,0.4,0
		c0.1-0.1,0.1-0.1,0.1-0.2V6.6c0-0.6-0.3-1.2-0.9-1.5c-0.6-0.3-1.3-0.3-1.8,0.1c0,0,0,0,0,0l-2.2,1.8C11,7.2,11,7.4,11.1,7.5
		C11.1,7.5,11.1,7.5,11.1,7.5z"/>
	<path d="M14.3,20c-0.1-0.1-0.3-0.1-0.4,0c-0.1,0.1-0.1,0.1-0.1,0.2v4l-5.4-4.4C8,19.5,7.5,19.3,7,19.3H2.7v-6.6h3.5
		c0.2,0,0.3-0.1,0.3-0.3c0-0.1,0-0.1-0.1-0.2l-1.7-1.7c-0.1-0.1-0.1-0.1-0.2-0.1H2.2c-0.9,0-1.7,0.7-1.7,1.7v7.8
		c0,0.9,0.7,1.7,1.7,1.7H7l6.3,5.2c0,0,0,0,0,0c0.5,0.4,1.2,0.4,1.8,0.1c0.5-0.3,0.9-0.9,0.9-1.5v-3.5c0-0.1,0-0.1-0.1-0.2L14.3,20z
		"/>
	<path d="M20.4,16c0,0.2,0,0.4,0,0.6c0,0.2,0,0.3,0.2,0.4l1.4,1.4c0.1,0.1,0.3,0.1,0.4,0c0,0,0.1-0.1,0.1-0.1
		c0.2-0.7,0.2-1.5,0.2-2.2c0-1.7-0.4-3.3-1.2-4.9c-0.3-0.5-1-0.7-1.5-0.5c-0.5,0.3-0.7,0.9-0.5,1.5C20.1,13.4,20.4,14.7,20.4,16z"/>
	<path d="M24.9,16c0,1.6-0.2,3-0.6,4.2c-0.1,0.2,0,0.4,0.1,0.6l1.2,1.2c0.1,0.1,0.3,0.1,0.4,0c0,0,0-0.1,0.1-0.1
		c0.7-1.7,1.1-3.5,1.1-5.8c0-3.5-0.9-5.8-2.4-8.3c-0.3-0.5-1-0.7-1.5-0.4c-0.5,0.3-0.7,1-0.4,1.5C24.1,11,24.9,12.9,24.9,16z"/>
	<path d="M28,4.3c-0.3-0.5-1-0.7-1.5-0.3s-0.7,1-0.3,1.5c1.9,3,3.1,5.9,3.1,10.5c0,3.3-0.6,5.7-1.6,7.8c-0.1,0.1,0,0.2,0.1,0.3
		l1.2,1.2c0.1,0.1,0.3,0.1,0.4,0c0,0,0,0,0.1-0.1c1.5-2.9,2.1-5.8,2.1-9.3C31.5,10.9,30.1,7.6,28,4.3z"/>
</svg>