<svg xmlns="http://www.w3.org/2000/svg" viewBox="0 0 32 32">
	<path d="M14.3,4.9C14.3,4.9,14.3,4.9,14.3,4.9c-0.4,0-0.7,0.1-1,0.3c0,0,0,0,0,0L7,10.5H2.2c-0.9,0-1.7,0.7-1.7,1.7v7.8
		c0,0.9,0.7,1.7,1.7,1.7l4.8,0l6.3,5.2c0,0,0,0,0,0c0.3,0.2,0.6,0.3,1,0.3c0.1,0,0.2,0,0.3,0c0.4-0.1,0.8-0.3,1.1-0.7
		c0.2-0.3,0.3-0.6,0.3-1V6.6c0-0.4-0.2-0.9-0.5-1.2C15.2,5.1,14.8,4.9,14.3,4.9z M13.8,24.2l-5.4-4.4c0,0,0,0,0,0
		C8,19.5,7.5,19.3,7,19.3c0,0,0,0,0,0H2.7v-6.6H7c0.5,0,1-0.2,1.4-0.5l5.4-4.4V24.2z"/>
	<path d="M19.9,10.6c-0.5,0.3-0.8,0.9-0.5,1.5c0.7,1.3,1,2.6,1,3.9c0,1.3-0.3,2.6-1,3.9c-0.3,0.5-0.1,1.2,0.5,1.5
		c0.2,0.1,0.3,0.1,0.5,0.1c0.4,0,0.8-0.2,1-0.6c0.8-1.6,1.2-3.3,1.2-4.9c0-1.7-0.4-3.3-1.2-4.9C21.1,10.5,20.5,10.3,19.9,10.6z"/>
	<path d="M24.7,7.7c-0.3-0.5-1-0.7-1.5-0.4c-0.5,0.3-0.7,1-0.4,1.5c1.3,2.2,2.1,4.1,2.1,7.2c0,3-0.8,4.9-2.1,7.2
		c-0.3,0.5-0.1,1.2,0.4,1.5c0.2,0.1,0.4,0.1,0.6,0.1c0.4,0,0.8-0.2,1-0.6c1.5-2.5,2.4-4.8,2.4-8.3C27.1,12.5,26.2,10.2,24.7,7.7z"/>
	<path d="M28,4.3c-0.3-0.5-1-0.7-1.5-0.3c-0.5,0.3-0.7,1-0.3,1.5c1.9,3,3.1,5.9,3.1,10.5c0,4.7-1.3,7.6-3.1,10.5
		C25.8,27,26,27.7,26.5,28c0.2,0.1,0.4,0.2,0.6,0.2c0.4,0,0.7-0.2,0.9-0.5c2.5-3.8,3.5-7.2,3.5-11.7C31.5,10.9,30.1,7.6,28,4.3z"/>
</svg>