<svg id="Calque_1" data-name="Calque 1" xmlns="http://www.w3.org/2000/svg" viewBox="0 0 32 32"><defs><style>.cls-1{fill:#010101}</style></defs><path class="cls-1" d="M17.29 1.15a1.27 1.27 0 00-.92.38l-8.19 8h-5.1a2.59 2.59 0 00-2.58 2.6v7.75a2.59 2.59 0 002.58 2.58h5.09l8.21 8a1.29 1.29 0 002.2-.9V2.42a1.28 1.28 0 00-1.29-1.27zM28.1 8.08a1.58 1.58 0 00-2.23 2.23 8.51 8.51 0 010 12 1.58 1.58 0 002.24 2.24 11.68 11.68 0 000-16.5z"/><path class="cls-1" d="M24.51 11.64a1.58 1.58 0 00-2.23 2.24 3.49 3.49 0 010 4.89A1.58 1.58 0 0024.51 21a6.65 6.65 0 000-9.37z"/></svg>