<svg xmlns="http://www.w3.org/2000/svg" viewBox="0 0 200 58"><g fill="#fff"><path d="M29.1 29.7c1.3-1.8 1.9-3.8 1.9-6.1 0-2.1-.5-4-1.5-5.7-1-1.7-2.5-3-4.4-4-2-1-4.3-1.5-7.1-1.5H2v34.3h10.8V34.4l6.5 12.3h11.8l-7.5-13.1c2.4-.8 4.2-2.1 5.5-3.9zm-9.8-3.2c-.5.5-1.3.7-2.3.7h-4.3v-5.8H17c1 0 1.8.3 2.3.8.5.5.8 1.2.8 2.1 0 1-.2 1.7-.8 2.2zM34.5 46.7h22.8v-8.6H45.2v-4.9h10.7v-8.1H45.2v-4.2h12.1v-8.5H34.5zM158.3 33.4l-4.6-21.6H142l-4.7 21.6-3.1-21.6h-11.6l7.9 34.3h13.3l4-19.5 4 19.5h13.4l7.8-34.3h-11.6zM187.6 37.9V11.8h-10.7v34.3H198v-8.2zM91.3 12.1c3.3 0 6.5 1 9.1 2.7l7-7c-4.5-3.4-10.1-5.4-16.1-5.4-6 0-11.6 2-16.1 5.4l7 7c2.6-1.8 5.7-2.7 9.1-2.7z"/><path d="M103.9 17.8c2.6 3 4.2 6.9 4.2 11.2 0 9.4-7.6 16.9-16.9 16.9S74.3 38.4 74.3 29c0-4.3 1.6-8.3 4.3-11.3l-6.9-6.9C67.2 15.6 64.5 22 64.5 29c0 14.8 12 26.7 26.7 26.7 14.8 0 26.7-12 26.7-26.7 0-7-2.7-13.4-7.1-18.1l-6.9 6.9z"/><path d="M84.8 38l15-9-15-9z"/></g></svg>